<?xml version="1.0" encoding="utf-8"?>
<!-- Generator: Adobe Illustrator 26.0.1, SVG Export Plug-In . SVG Version: 6.00 Build 0)  -->
<svg version="1.1" id="Layer_1" xmlns="http://www.w3.org/2000/svg" xmlns:xlink="http://www.w3.org/1999/xlink" x="0px" y="0px"
	 viewBox="0 0 492 405" style="enable-background:new 0 0 492 405;" xml:space="preserve">
<style type="text/css">
	.st0{fill:none;}
	.st1{fill:#662D91;}
	.st2{fill:#1B1D16;}
	.st3{fill:#009A4A;}
	.st4{fill:#69AB5B;}
	.st5{fill:#FFFFFF;}
	.st6{fill:#DA223C;}
	.st7{fill:#CF9646;}
	.st8{fill:#FFFFFF;stroke:#662D91;stroke-width:3.226;stroke-miterlimit:10;}
	.st9{fill:#FFFFFF;stroke:#7F3F98;stroke-width:0.9834;stroke-miterlimit:10;}
	.st10{fill:#662D91;stroke:#FFFFFF;stroke-width:1.9039;stroke-miterlimit:10;}
	.st11{fill:#662D91;stroke:#FFFFFF;stroke-width:1.0313;stroke-miterlimit:10;}
	.st12{fill:#FFFFFF;stroke:#000000;stroke-width:4.064;stroke-miterlimit:10;}
</style>
<symbol  id="Restaurant_00000087370698334985750340000007035489789352156825_" viewBox="-612.78 12.79 781.93 557.53">
	<rect x="-5.23" y="12.79" class="st0" width="174.37" height="151.22"/>
	<path class="st1" d="M-189.71,567.93l-55.27-216.79c0,0-1.31-24.6,17.52-4.47l30.73,120.53l17.92,10.47l16.57,71.06
		C-162.24,548.74-164.85,578.86-189.71,567.93z"/>
	<path class="st1" d="M-611.69,560.62c0,0-9.75-63.66,28.92-70.8l50.58-135.52c0,0,15.61-21.18,16.58,6.19l-50.81,136.15
		c0,0,29.95,21.3-23.18,72.23l14.04-48.63l-23.47,45.25l10.26-51.29L-611.69,560.62z"/>
</symbol>
<g id="e7cKau_00000104678326449895741640000004138857837673358752_">
	<g>
		<path class="st2" d="M168.16,270.92c8.53,2.16,17.1,3.91,25.7,5.27C185.32,274.49,176.76,272.69,168.16,270.92z"/>
		<path class="st2" d="M278.48,284.5c-2.13,0.12-4.25,0.23-6.38,0.31C274.23,284.74,276.36,284.64,278.48,284.5z"/>
		<path class="st2" d="M100.68,248.52c8.6,7.22,17.91,13.01,29.11,15.24c-9.18-3.9-18.18-8.48-26.95-13.88
			C102.11,249.44,101.4,248.98,100.68,248.52z"/>
		<path class="st2" d="M359.25,172.36c-0.02,0.02-0.04,0.05-0.06,0.08c0.04,0.01,0.08,0.02,0.12,0.03
			C359.29,172.42,359.28,172.39,359.25,172.36z"/>
		<path class="st2" d="M357.34,208.63c0.17-0.13,0.35-0.26,0.52-0.39c0.01-0.03,0.03-0.06,0.04-0.09c-0.03,0-0.07,0.01-0.1,0.01
			C357.65,208.32,357.49,208.48,357.34,208.63z"/>
		<path class="st2" d="M425.2,229.38c-2.88,5.64-7.59,10.29-13.33,14.44c-23.36,16.88-49.59,26.12-76.84,32.58
			c-18.72,4.43-37.6,6.99-56.54,8.1c-2.13,0.14-4.25,0.24-6.38,0.31c-16.78,0.69-33.6,0.29-50.42-0.92
			c-31.62-2.29-62.66-7.71-91.89-20.12c-11.21-2.23-20.51-8.03-29.11-15.24c-5.31-3.43-10.31-7.32-14.58-12.23
			c-1.48-1.7-2.78-3.45-3.89-5.27c-2.05-2.03-4.12-4.05-6.21-6.02c2.09,1.97,4.16,3.99,6.21,6.02c-3.58-5.86-5.14-12.41-3.82-20.07
			c3.4,0.78,6.07,1.76,6.24,6.23c0.39,10.13,5.85,17.21,13.15,22.93c20.44,16.02,44.11,23.98,68.34,30.31
			c0.68,0.18,1.36,0.33,2.04,0.5c8.6,1.77,17.16,3.57,25.7,5.27c28.75,4.56,57.83,4.98,86.9,3.25c37.86-2.26,74.97-9.56,109.5-27.48
			c8.73-4.53,17.22-9.55,23.97-17.2c4.79-5.42,8.13-11.8,7.83-19.31c-0.18-4.45,1.89-5.8,5.29-7.39
			C429.21,216.61,428.19,223.53,425.2,229.38c2.37-2.39,4.63-4.87,6.8-7.41c0.67-3.21,0.61-6.68-0.4-10.04
			c-1.47-4.91-0.47-8.36,3.29-12.02c8.25-8.02,12.09-18.33,8.82-30c-1.13-4.02-1.08-5.76,1.63-8.72c6.58-7.19,5.46-15.57-2.09-19.89
			c-8.72-4.98-8.75-5.01-1.83-13.26c4-4.78,6.31-10.23,3.35-16.18c-2.95-5.95-8.05-5-13.46-3.58c-8.42,2.22-9.29,0.87-6.85-8.36
			c1.77-6.69-1.1-10.88-7.57-11.62c-5.78-0.66-9.65,2.55-13.32,6.52c-1.34,1.45-2.71,3.52-4.85,2.85c-2.57-0.8-1.21-3.49-1.47-5.31
			c-1.24-8.61-5.13-11.56-12.43-9.07c-2.12,0.72-4.14,1.8-6.23,2.73c-0.61-3.4-1.22-6.43-1.7-9.48
			c-3.35-21.49-13.39-27.22-31.42-17.7c-3.4,1.79-4.24,0.2-3.82-2.69c0.87-5.95,1.15-11.37-5.02-14.6c-1.53-0.8-0.73-2.81-0.7-4.27
			c0.18-7.43-3.62-10.69-10.18-11.32c-1.84-0.18-3.49,0.84-4.96-2.51c-4.44-10.1-13.64-10.91-20.26-2.27
			c-3.18,4.15-6.65,6.62-11.97,6.71c-8.16,0.14-12.26,6.28-9.09,14.01c2.04,4.99,0.67,6.05-3.57,6.05
			c-4.14,0.01-6.34,3.22-5.29,6.47c1.92,5.89-1.98,4.86-4.92,6.29c0-4.99-0.51-9.42,0.11-13.67c1.09-7.34-2.15-10.79-8.12-13.33
			c-3.44-1.46-7.65,0.3-10.34-2.62c-4.77-5.18-8.75-2.5-12.73,0.84c-2.6,2.19-4.96,4.7-8.99,3.53c0.71-4.08,1.38-7.82,2-11.58
			c1.14-6.94,0.2-13.11-6.8-15.93c-6.62-2.67-11.96,0.27-15.63,8.72c-2.72,6.25-4.65,12.89-7.16,19.24c-2.1,5.31-5.73,5.92-9.9,2.63
			c-2.34-1.84-4.59-3.91-6.51-6.23c-5.29-6.38-11.94-8.37-19.68-7.86c-4.69,0.31-9.02,1.56-10.62,6.5
			c-1.76,5.43,1.08,9.39,5.41,12.26c4.73,3.13,9.51,6.19,14.1,9.54c2.96,2.16,4.92,5.21,3.66,9.27c-1.29,4.14-4.47,5.11-8.18,4.64
			c-3.84-0.48-7.67-1.29-11.52-1.53c-9.65-0.59-12.27,3.13-9.65,12.91c1.45,5.39,4.6,10.24,4.48,16.11
			c-0.06,2.55,0.77,6.05-1.75,7.04c-3.17,1.25-3.1-2.93-4.47-4.7c-0.9-1.17-1.52-2.6-2.23-3.93c-5.2-9.79-10.33-10.34-17.23-1.84
			c-0.74,0.91-0.68,3.12-2.81,1.14c-4.13-3.83-9.2-2.35-13.97-2.03c-13.66,0.92-16.98,5.39-13.86,18.67
			c-3.37-0.48-6.71-1.48-9.99-1.3c-4.96,0.27-8.73,2.83-9.94,8.46c-1.19,5.51,1.16,8.81,5.77,10.86c2.48,1.11,4.68,2.68,6.37,5
			c1.41,1.93,2.18,4.16,1.37,6.4c-0.89,2.47-3.28,1.88-5.15,1.76c-6.55-0.42-13.08-1.32-19.63-1.44
			c-7.46-0.14-10.52,4.51-8.23,12.13c1.09,3.64,2.77,7.09,4.2,10.64c-1.19,0.36-2.53,0.8-3.89,1.18
			c-7.37,2.07-14.04,5.26-15.32,14.34c-1.27,8.99,3.6,15.07,9.73,20.22c6.19,5.21,13.52,7.86,21.05,9.8
			c3.89,1.01,5.74,2.46,5.08,7.25c-1.06,7.71,1.11,14.91,5.7,20.91c2.24,2.92,3.56,6.1,4.55,9.5c10.13,34.84,25.68,66.6,48.98,93.55
			c20.24,23.42,44.08,40.59,74.46,46.41c24.95,4.78,49.91,5.74,74.93,2.59c18.02-2.27,35.61-6.55,51.66-16.58
			c37.75-23.59,61.07-59.57,78.3-100.95c5.62-13.5,8.3-28.25,16.16-40.88c1.18-1.9,2.04-4.07,2.52-6.37
			C429.83,224.52,427.58,226.99,425.2,229.38z M88.88,218.79c3.79,3.35,6.31,7.46,6.57,14.4C91.85,228.29,89.15,224.23,88.88,218.79
			z M139.5,258.17c-0.46-0.17-0.97-0.2-1.41-0.4c-6.28-2.8-14.42-3.96-18.29-8.89c-3.86-4.92,1.3-13.04,1.68-19.85
			c0.19-3.35,0.09-6.73,0.12-10.09c-2.18-5.65-3.46-11.95-9.97-15.03c6.71,1.78,10.27,0.64,10.69-7.51
			c0.22-4.19,4.63-4.59,8.22-2.57c5.69,3.2,6.96,9.06,7.35,15.02c0.39,5.95,3.32,9.34,8.45,9.76c7.91,0.64,10.07,5.9,10.75,12.92
			c0.55,5.69,0.35,11.36-0.3,17.02C152.9,263.17,152.9,263.17,139.5,258.17z M202.04,103.53c15.22,3.54,19.42,22.29,9.61,35.2
			c-7.76,10.2-26.49,14.56-39.5,15.98c-1.61-3.09,4.82-2.22,2.47-5.7c-2.84,1.24-4.21,0-5.3-2.88c-2.07-5.45-5.77-10.07-11.02-11.44
			c-7.16-1.87-7.73-5.98-5.64-12.09c-4.8,0.06-2.36,4.5-3.53,6.75c-0.57,1.09-0.55,2.61-2.14,2.47c-2.19-0.2-1.97-2.2-1.59-3.47
			c1.39-4.61,2.87-9.25,7.02-12.09C166.84,102.72,184.11,99.36,202.04,103.53z M194.2,94.72c3.73,0.16,7.06-1.38,9.34,2.11
			c0.62,0.95,0.12,2.19-1,2.33C199.35,99.55,196.14,99.65,194.2,94.72z M334.97,133.16c7.98,3.54,5.29,8.32,1.67,13.34
			c-0.76,1.05-1.66,2.34-0.73,3.44c1.51,1.8,3.34,3.14,0.51,5.42c-2,1.61-4.12,2-6.1,0.69c-3.57-2.37-5.57-2.17-7.53,2.41
			c-1.63,3.79-5.03,3.8-7.67,0.43c-2.71-3.47-4.72-3.49-8.34-0.54c-5.82,4.75-14.59,1.04-17.66-7.21c-1.16-3.11-1.63-3.47-4.39-1.93
			c-4.73,2.63-7.72,2.39-8.59-4.92c-0.69-5.84-6.14-2.91-9.73-2.98c-0.76-1.29-0.47-3,0.6-3.23c5.32-1.14,7.59-4.15,7.39-10.08
			c-0.11-3.22,2.92-3.99,5.48-3.42c6.85,1.52,11.04,0.16,11.62-8.57c0.25-3.83,4.61-5,8.08-5.3c3.41-0.29,6.02,1.32,7.63,4.76
			c0.85,1.82-0.29,6.27,2.7,5.08c3.43-1.37,6.77,2.72,10.18-1.28c2.6-3.04,6.88-6.1,10.69-0.6c5.38,1.67,6.11,4.9,2.85,9.49
			C334.12,129.85,333.27,132.41,334.97,133.16z M380.88,141.76c-0.75,3.07-2.67,5.33-4.57,7.73c-5.9,7.48-13.02,13.96-17.13,22.94
			c0,0,0.01,0,0.01,0c0.02-0.02,0.04-0.05,0.06-0.08c0.02,0.04,0.03,0.07,0.06,0.1c3.38,0.95,4.02-2.51,5.42-4.27
			c2.61-3.28,5.01-6.7,8.28-9.18c0.52,0.48,1.04,0.96,1.55,1.44c-5.53,7.31-11.07,14.63-17.18,22.7c-1.96-5.45,4.39-6.68,1.92-10.69
			c-0.04-0.01-0.08-0.02-0.12-0.03c-6.94,8.49-13.23,17.61-21.34,24.98c-1.3,1.18-2.23,4.1-4.4,1.32c-1.53-1.96-5.32-2.93-3.38-6.7
			c11.19-21.69,23.7-42.26,43.75-56.18c1.72-1.19,3.77-2.8,6.01-1.14C382.35,136.59,381.48,139.29,380.88,141.76z M384.79,139.73
			c1.95,9.13-3.93,13.83-9.89,18.49C376.91,151.4,384.77,147.91,384.79,139.73z M343.74,211.37c-6.12-9.4-6.37-9.7,1.84-17.22
			c14.6-13.37,30.3-16.46,45.36,0.41c0.67,0.75,1.39,1.45,2.04,2.21c10.31,12.08,10.31,12.08,2.21,25.67
			C377.59,189.47,363.86,186.51,343.74,211.37z M355.56,213.69c6.39-4.23,15.31-3.3,20.36,1.63c4.74,4.62,6.97,14.7,4.06,19.9
			c-1.93,3.46-5.66,5.01-9.03,5.24c-3.91,0.27-2.77-3.9-3.22-6.49c-1.18-6.77-6.08-9.46-12.62-6.73c-1.93,0.81-3.62,2.28-5.66,3.61
			C347.14,223.25,349.62,217.61,355.56,213.69z M241.76,218.56c-4.72-3.49-9.57-23.23-6.74-28.67c2.23-4.29,5.13-4.81,8.76-1.08
			c6.65,6.84,8.28,6.63,14.21-1.05c2.08-2.69,4.33-4.89,7.82-4.95c2.81-0.05,4.54,0.49,3.82,4.44c-1.79,9.79-1.61,9.83,9.34,8.49
			c-4.71,6.82-8.57,13.03-10.96,20.11c-0.31,0.93-0.9,1.83-1.58,2.51C265.63,219.17,242.62,219.19,241.76,218.56z M265.31,227.17
			c-1.23,9.46-7.74,15.91-12.11,23.57c-0.39,0.68-2.26,0.73-3.38,0.57c-10.62-1.59-21.35-1.04-33.03-1.5
			c0.93-2.1,1.29-3.02,1.73-3.9c11.09-22.25,20.93-27.13,44.28-22.25C265.11,224.15,265.58,225.1,265.31,227.17z M243.71,153.72
			c-0.61-1.26-2.07-2.41-0.06-3.75c1.18-0.79,2.13-0.81,3.25,0.19c8.27,7.42,12.29,17.55,13.29,28.33c0.4,4.34-5.11,8.45-9.38,10.76
			c-2.26,1.22-3.91-1.65-4.4-3.99c-1.91-9.09-3.74-18.16-9.58-25.59c-1.67-2.13,0.1-3.17,1.33-4.39c1.57-1.55,2.64-0.46,3.51,0.83
			c1.99,2.91,3.87,5.9,5.8,8.85c0.39-0.33,0.78-0.66,1.17-1C247,160.56,245.37,157.13,243.71,153.72z M248.65,144.31
			c14.15,7.53,20.81,20.75,25.4,35.7c-8.83,0.53-10.6-5.82-12.39-12.51C259.28,158.63,254.18,151.33,248.65,144.31z M238.67,171.33
			c2.91,8,0.78,13.22-6.85,14.85c-3.36,0.72-5.5-3.35-8.44-4.86c-2.23-1.15,0.24-3.39,0.91-4.92c2.22-5.08,4.63-10.08,8.64-14.69
			C235.67,164.99,237.45,167.97,238.67,171.33z M275.29,167.6c5.67,3.78,11.26,16.41,10.25,21.14c-0.33,1.53-1.29,2.19-2.4,2.6
			c-1.9,0.72-1.33-1.54-2.11-2.22c-0.16-0.14-0.19-0.46-0.26-0.71C279.03,181.82,277.3,175.22,275.29,167.6z M283.52,168.49
			c5.57,1.99,6.37,5.91,7.79,8.99c1.77,3.86,3.27,3.35,4.73,0.04c1.02-2.32,1.41-5.22,4.67-4.88c2.15,0.23,4.4-2.08,6.22-0.4
			c2.28,2.12-0.51,4.13-0.94,6.19c-0.31,1.46-1.55,2.91-0.1,4.18c1.3,1.14,2.65,0.23,4.01-0.46c3.36-1.68,5.84-5.55,10.51-5.05
			c-4.19,6.66-9.65,8.93-16.64,7.84c-4.89-0.77-9.45,1.41-14.39,3.01C288.78,181.34,286.97,175.58,283.52,168.49z M321.47,182.74
			c2.47-1.66,4.89-5.6,8.1-2.2c3.22,3.41-0.99,6.01-2.34,8.2c-3.75,6.06-6.13-1.93-9.66-2.64
			C318.86,184.97,320.06,183.69,321.47,182.74z M341.89,119.12c6.76,0.63,13.48,5.25,13.05,10.64c-0.47,5.83-7.4,6.82-9.52,6.2
			c-3.91-1.14-7.62-5.43-6.34-11.85C339.84,122.76,336.2,118.59,341.89,119.12z M283.06,93.29c-0.1-6.48,3.14-6.85,7.4-4.57
			c6.47,3.45,9.98,9.38,11.93,18.13c-10.55-2.59-14.79,3.98-16.79,13.65c-0.83-0.41-1.67-0.83-2.5-1.24
			C283.09,110.59,283.2,101.94,283.06,93.29z M306.71,103.14c-2.81,1.48-2.72-1.7-3.5-3.35c-2.53-5.38-5.47-10.31-10.89-13.07
			c-7.3-3.73-11.14-1.93-11.74,6.5c-0.51,7.2-0.02,14.47-0.06,21.71c-0.01,1.53,1.59,4.17-1.23,4.23c-2.41,0.05-1.59-2.75-1.76-4.34
			c-0.85-7.69,0.08-15.5-1.69-23.16c-0.64-2.75-0.13-5.72-3.82-6.43c-4.13-0.8-7.28,0.65-9.53,4.82c10.46-3.76,11.27-3.14,11.79,8.7
			c0.24,5.38,0.62,10.74,0.87,16.12c0.39,8.64-9.84,21.47-16.85,21.19c-0.01,4.08,6.38,5.72,3.51,11c-3.4-0.23-5.22-3.36-7.41-5.48
			c-12.8-12.34-13.27-39.82-1.1-52.8c13.38-14.29,36.36-14.4,48.4-0.27c2.32,2.72,3.94,5.83,5.28,9.19
			C307.76,99.68,308.95,101.95,306.71,103.14z M244.64,139.88c1.37,5.46-2.7,7.45-5.29,9.46c-7.93,6.12-13.2,14.28-17.74,23.22
			c-1.04,2.05-1.63,6.1-4.71,4.35c-3.59-2.04-0.41-5.05,0.77-7.1C224.56,157.85,233.64,148.08,244.64,139.88z M236.42,142.31
			c-11.55,10.6-20.73,22.98-27.61,37.66c-4.44,9.46-11.08,17.76-16.74,26.58c0.62-30.06,11.38-54.38,34.55-71.66
			c0.99-0.74,2.03-1.4,3.1-1.99c3.59-1.96,7.74-5.45,11.04-0.93C244.48,137.06,239.48,139.5,236.42,142.31z M172.92,169.89
			c5.56,2.27,7.21-2.13,8.85-6.23c0.84-2.11,1.1-4.52,2.14-6.48c1.24-2.34,3.7-2.36,5.86-1.84c2.5,0.61,1.55,2.68,1.23,4.39
			c-0.72,3.88-1.3,7.69,2.37,10.49c1.6,1.22,0.68,2.88,0.21,4.18c-3.61,10.06-5.97,20.42-7.05,31.66
			c-6.2-7.29-12.74-12.99-21.71-15.26c-3.41-0.86-2.44-5.13-1.22-7.06c2.45-3.88,4.71-7.78,6.24-12.13
			C170.44,169.89,171,169.1,172.92,169.89z M175.78,158.5c1.86-0.18,3.48,0.03,3,3.33c-0.53,1.53-0.8,4.28-3.39,4.51
			c-2.06,0.18-3.5-1.39-3.69-3.8C171.45,159.36,173.46,158.72,175.78,158.5z M207.85,147.61c-4.22,6.93-8.09,13.3-12.03,19.76
			C191.43,159.43,194.2,154.79,207.85,147.61z M168.52,158.94c-0.22,6.92-1.94,13.67-6.59,20.05c-3.27-12.19-9.12-21.61-18.44-28.63
			c-2.99-2.25-3.45-6.69-4.4-10.36c-0.74-2.86,1.77-2.9,3.5-3.48C155.92,132.05,169.02,143.14,168.52,158.94z M158.27,181.14
			c1.77,10.23,0.82,20.51-2.54,30.43c-0.76,2.26-0.22,5.25-4.28,4.29c-3.99-0.95-2.46-3.01-2.1-5.64
			c1.19-8.72,1.58-17.61,0.11-26.24c-4.14-24.19-27.25-32.65-45.41-16.81c-2.8,2.44-5.7,5.16-7.46,8.42
			c-2.74,5.05-6.06,6.63-11.98,4.15c7.11-12.63,15.9-22.39,28.8-27.59C136.92,142.67,154.43,158.94,158.27,181.14z M142.9,181.07
			c4.81,8.23,4.81,19.12,0.54,32.57C141.78,203.41,145.86,193.18,142.9,181.07z M127.19,164.01c9.7,1.22,14.37,13.61,11.4,33.68
			C134.82,186.53,131.04,175.37,127.19,164.01z M131.62,188.91c-4.02,1.47-6.39,0.45-7.65-4.08c-1.43-5.13-3.51-10.06-5.31-15.07
			c-0.81-2.26-2.9-4.77,0.86-6.25c3.2-1.26,4.28,1.04,5.11,3.66C126.94,174.39,129.27,181.63,131.62,188.91z M97.97,179.89
			c0.73-1.03,1.36-2.15,2.11-3.17c3.33-4.54,7.29-10.12,12.39-9.76c3.58,0.25,4.16,7.46,5.34,11.73c1.24,4.48,3.67,8.07,2.6,14.13
			c-1.76,9.99-10.33,5.13-13.73,9.99c-2.75-0.34-2.4-2.63-2.57-4.59c-0.5-5.63-0.34-11.53-5.71-15.1
			C97.08,182.25,97.09,181.14,97.97,179.89z M156.76,263.61c-1.01-1.57,0.5-3.23,1-4.82c3.88-12.26,5.54-24.61,0.32-36.89
			c-1-2.34-0.09-3.9,0.36-5.81c0.98-4.23,2.28-8.41,2.86-12.7c1.22-8.95,3.2-10.31,10.51-5.68c11.82,7.5,14.98,19.5,14.67,28.72
			c-0.13,16.29-2.44,27.45-9.23,37.14C174.48,267.53,159.3,267.52,156.76,263.61z M178.39,268.93
			c12.19-16.36,13.32-34.33,9.97-53.17c-0.26-1.45-1.24-3.8,0.34-4.08c9.22-1.61,10.47-10.64,14.51-17.01
			c4.92-7.76,9.91-10.08,18.55-8.1c6.43,1.48,9.98,5.58,8.37,12.58c-1.32,5.74-0.36,10.07,3.94,13.68c1.85,1.55,3.65,3.98,1.27,5.64
			c-1.93,1.35-3.98,4.36-7.55,1.99c-8.21-5.46-13.9-4.96-20.92,1.98c-13.21,13.06-18.16,29.28-15.45,48.98
			C186.96,270.58,182.99,269.81,178.39,268.93z M199.61,273.21c-2.76,0.11-4.18-1.69-4.55-4.85c-1.91-16.33,2.14-30.61,13.31-42.09
			c4.1-4.21,9.02-7.97,15.54-4.29c2.74,1.55,3.55,2.96,1.29,5.69c-12.17,14.69-17.84,29.96-1.63,46.75
			C214.34,275.92,207.07,272.9,199.61,273.21z M244.51,276.37c-18.67-0.12-21.59-2.52-27.2-21.49c10.6,0,21.51,0.02,32.43-0.01
			c2.22-0.01,3.46,0.66,3.99,3.33c1.18,5.97,2.82,11.84,4.38,18.18C253.27,276.37,248.89,276.39,244.51,276.37z M262.37,275.14
			c-1.63-10.42-10.88-20.71,0.46-31.13c0.87,7.93,1.15,15.77,5.01,22.98C269.97,270.96,264.62,272.4,262.37,275.14z M288.97,275.06
			c-10.73,1.81-20.3-7.8-21.74-21.21c-1.86-17.28,1.2-34.09,9.97-49.07c8.31-14.19,23.07-19.83,36.58-14.82
			c12.52,4.64,21.49,20.96,20.09,37c-0.42,4.86-1.09,9.77-2.33,14.45C323.72,270.93,313.38,273.86,288.97,275.06z M321.55,270.01
			c14.71-20.21,20.02-41.59,11.7-65.81c11.04,9.83,15.62,29.49,10.36,45.85C339.38,263.17,333.99,270.28,321.55,270.01z
			 M381.07,252.18c-12.74,5.78-25.95,9.93-40.96,13.96c5.68-9.21,8.75-17.6,9.44-27.22c0.38-5.28,5.23-7.89,9.99-8.78
			c3.08-0.58,3.84,1.79,4.21,4.84c1.13,9.38,4.56,11.47,12.81,7.36c4.16-2.07,6.99-0.48,8.47,2.83
			C386.49,248.39,384.02,250.85,381.07,252.18z M395.69,243.23c-0.35,2.97-4.38,4.73-5.04,3.32c-2.06-4.45-7.62-6.26-6.8-13.18
			c1.85-15.58-4.45-24.27-17.41-25.86c-2.78-0.34-5.68,0.39-8.53,0.64c-0.01,0.03-0.03,0.06-0.04,0.09
			c-0.17,0.13-0.35,0.26-0.52,0.39c0.15-0.16,0.31-0.32,0.46-0.47c0.03,0,0.07-0.01,0.1-0.01c3.36-8.38,9.7-11.28,16.3-7.44
			C385.31,207.18,397.2,230.46,395.69,243.23z M423.02,206.01c-5.25,3.83-8.94,8.93-8.68,15.21c0.48,11.77-7.6,15.53-15.01,21.13
			c-4.13-13.1-1.02-23.06,9.25-31.29c1.54-1.24,3.19-2.34,4.85-3.41c6.96-4.48,13.94-8.93,21.23-12.99
			C431.91,199.75,427.32,202.88,423.02,206.01z M438.77,183.79c-5.83,9.18-15.38,13.21-23.83,18.71c-3.21,2.09-3.49-1.78-4.64-3.2
			c-12.65-15.57-26.27-21.85-45.64-19.99c6.18-8.04,11.74-15.32,17.34-22.55c1.08-1.39,2.32-2.65,3.52-3.94
			c1.95-2.09,1.52-7.1,5.11-6.63c3.81,0.5,4.12,5.21,5.47,8.37c4.2,9.83,6.46,20.35,9.76,32.7c0.95-10.38-1.59-18.1-3.89-25.84
			c-0.93-3.11-2.2-5.63,2.19-7.6c3.74-1.68,3.96-6.8,5.66-10.45c1.28-2.76,2.38-5.62,3.67-8.37c2.03-4.33,5.46-5.78,9.74-4.63
			c4.15,1.12,3.69,4.98,3.73,8.24c0.24,17.16-3.66,33.71-6.7,50.38c0.33,0.3,0.66,0.61,0.99,0.91c3.68-7.37,5-15.54,6.55-23.54
			c0.78-4.01,1.98-3.68,4.75-2.54C440.92,167.24,443.79,175.89,438.77,183.79z M376.75,116c-0.09-8.2,3.21-15.06,2.06-22.9
			c-0.59-4.01,4.74-6.42,9.31-6.66c4.45-0.23,5.07,2.47,5.29,6.32c0.18,3.22,0.08,7.11,3.63,8.66c3.96,1.72,6.11-1.81,8.68-4.01
			c2.07-1.77,4.11-3.66,6.42-5.01c2.76-1.63,5.59-1.28,8.18,0.89c2.64,2.21,1.07,4.75,0.51,7.09c-2.71,11.32-1.23,13.03,10.04,11.37
			c1.69-0.25,3.38-0.53,5.07-0.65c5.41-0.38,8.42,3.49,6.39,8.76c-1.08,2.79-2.98,5.34-4.89,7.64c-6.75,8.15-6.33,11.02,2.74,16.31
			c6.35,3.71,7.53,9.3,3.16,14.88c-2.22,2.83-4.63,4.29-8.26,2.56c-3.28-1.56-5.7-2.91-5.7-7.66c0.01-6.17,2.38-12.12,0.78-18.48
			c-1.12-4.44-2.93-7.57-7.17-8.77c-4.02-1.13-7.11,0.8-9.84,3.6c-4.37,4.48-5.62,10.75-8.13,16.3c-0.94,2.09-1.51,4.86-4.07,4.88
			c-2.4,0.03-3.7-2.37-4.66-4.47c-3.07-6.72-5.96-13.52-9.03-20.24c-1.15-2.53-2.3-5.09-5.62-5.34
			C376.59,120.68,376.6,120.56,376.75,116z M379.44,126.88c0.53,1.12,0.1,2.75-1.27,3.17c-7.52,2.31-13.2,7.57-18.55,13.19
			c-5.33,5.6-10.35,11.53-16.24,18.14c-0.24-4.76,0.67-8.54-1.53-12.61c-1.45-2.68,1.01-6.98,4.35-8.52
			c9.99-4.59,20.11-8.88,30.19-13.27C377.39,126.53,378.65,125.2,379.44,126.88z M372.9,108.88c-3.74,5.3-8.92,9.67-8.2,17.4
			c0.16,1.72-1.66,2.22-3.1,2.73c-2.24,0.79-3.04-0.57-3.76-2.4c-3.4-8.58-10.35-10.92-18.24-11.62c-1.68-0.15-3.66,0.11-4.97-0.74
			c-5.7-3.69-11.03-3.21-16.33,0.76c-2.85,2.13-4.18,1.53-4.59-2.37c-1.24-11.78-4.24-22.81-13.44-30.68
			c-2.48-2.12-0.82-4.82-1.45-8.21c-2.12-3.82,0.25-5.95,4.2-7.73c5.61-2.52,11.34-4.37,16.47,0.16c3.55,3.13,1.75,7.56,0.33,11.44
			c-1.05,2.88-2.21,5.72-3.27,8.6c-4.34,11.77,1.83,20.32,13.71,18.77c5.89-0.77,11.31-2.94,15.51-7.74
			c2.15-2.46,4.4-4.84,6.71-7.14c5.97-5.94,13.56-6.59,19.03-1.72C376.41,92.76,377.25,102.71,372.9,108.88z M322.26,81.65
			c1.48,6.44,2.89,12.54,4.32,18.76C316.78,98.96,315.86,94.97,322.26,81.65z M328.73,89.24c3.66-4.91,8.59-8.15,14.73-8.64
			c2.9-0.14,5.38,0.83,6.86,3.44c1.86,3.28-1.36,4.44-2.8,6.15c-3.06,3.62-6.24,7.19-10.56,9.17c-2.13,0.97-5.1,3.13-6.52,0.47
			C328.82,96.8,326.04,92.85,328.73,89.24z M367.49,74.39c1.17-3.3,0.12-6.94,0.45-10.54c4.44,6.05,6.25,12.82,5.87,20.88
			C368.26,83.19,365.27,80.65,367.49,74.39z M350.96,59.14c7.99-4.79,12.23-2.2,12.7,7.63c0.15,3.1-0.05,6.21,0,9.32
			c0.04,2.69,0.11,5.75-3.27,5.65c-2.58-0.07-4.66,3.52-8.08-0.62c-6.1-7.4-13.66-3.46-20.59-0.1c-0.35,1.21-1.35,1.48-2.05,0.86
			c-1.04-0.92,0.33-1.42,0.69-2.1C336.34,71.89,342.52,64.2,350.96,59.14z M282.33,50.59c2.58-3.52,5.36-5.18,1.24-9.77
			c-3.27-3.64,0.43-10,5.44-8.64c7.05,1.9,10.25-2.91,13.59-6.89c5.88-6.98,11.88-6.8,15.06,1.78c1.35,3.64,3.28,2.77,5.64,2.77
			c7,0,9.42,3.04,8.18,10.44c-0.44,2.64-0.51,4.37,2.56,5.12c3.28,0.8,4.56,3.45,4.41,7.02c-0.2,4.67-4.57-0.35-5.37,2.8
			c0.78,3.71,7.01,4.19,5.98,7.61c-1.34,4.44-6.03-1.03-9.1,1.36c-2.37,1.84-3.47,0.2-4.72-2.4c-5.41-11.29-10.69-12.82-20.86-6.56
			c-2.9,1.78-5.61,3.54-7.6-1.3c-2.68-6.5-7.33-5.29-11.43-2.28c-3.45,2.54-6.59,3.26-10.99,2.12
			C276.63,50.13,279.96,53.83,282.33,50.59z M279.62,60.89c8.72,0.13,15.58,5.9,15.49,12.9c-0.04,2.88-0.48,4.42-3.8,3.11
			c-10.03-3.94-19.82-2.83-29.71,1.33c-6.18,2.6-4.14-4.4-5.73-6.99c-1.72-2.82-0.82-4.36,2.77-4.76
			C265.85,65.69,272.2,61.04,279.62,60.89z M254.51,62c-0.03-4.56,4.41-5.37,7.56-9.13c0.37,5,2,8.59-2.58,10.27
			C257.55,63.84,254.52,63.78,254.51,62z M256.75,37.13c6.62,2.16,8.8,8.82,3.11,12.59c-11.35,7.51-10.73,16.53-5.83,27.23
			c1.29,2.81,1.4,4.93-1.18,7.44c-10.35,10.09-13.75,22.72-11.22,37.29c0.54,3.09,1.64,5.51-3.82,4.8
			c-6.37-0.82-11.41,4.82-18.05,8.59c1.59-13.98,0.1-25.64-11.61-32.94c0.07-11.49-8.57-10.35-15.35-11.92
			c-1.86-0.43-3.21-1.78-3.21-3.71c0-2.21,1.97-2.48,3.63-3.02c5.79-1.9,11.82-2.67,17.54-5c4.09-1.66,3.05,2.76,3.37,4.87
			c1.14,7.53,1.11,15.29,4.56,22.45c-1.03-12.82-1.89-25.66-3.16-38.45c-0.48-4.83-5.05-6.67-7.86-9.78
			c-1.77-1.96-4.9-3.52-3.49-6.94c1.27-3.09,4.12-4.13,7.25-4.34c4.95-0.34,9.75,0.01,14.09,2.87c5.5,3.62,9.21,2.28,12.44-3.79
			C242.76,36.37,248.17,34.33,256.75,37.13z M210.31,74.51c-1.27-4.13-2.42-7.86-4.05-13.17C211.31,65.55,215.46,68.32,210.31,74.51
			z M148.1,105.37c7.27-4.54,4.61-11.68,3.68-18.07c-0.51-3.48-2.52-6.69-3.42-10.14c-1.88-7.16,0.58-9.92,7.35-8.63
			c3.11,0.59,6.21,1.24,9.34,1.62c5.5,0.66,9.99-0.63,12.55-6.69c2.63-6.22-0.7-10.01-4.59-13.21c-4.6-3.78-9.73-6.85-14.58-10.3
			c-2.47-1.75-5.19-3.75-4.1-7.41c1.1-3.7,4.42-4.47,7.65-4.78c6.72-0.64,12.24,1.66,17.1,6.83c13.85,14.73,18.61,13.42,25.23-6.25
			c1.55-4.59,3.39-9.12,5.55-13.42c1.76-3.5,5-5.08,8.71-4.04c3.93,1.1,6.03,3.89,6.03,8.5c0,3.93-0.47,7.69-1.57,11.42
			c-0.79,2.65-2.05,5.29,0.54,7.85c2.92,2.88,5.55,0.64,8.11-0.36c1.76-0.69,3.26-2.21,4.8-3.48c2.18-1.79,4.35-3.36,7.76-1.78
			c-4.32,3.11-7.61,6.84-9.86,11.47c-1.75,3.61-3.69,3.61-6.98,1.71c-6.29-3.63-13.04-6.21-20.2-2.59
			c-5.19,2.62-8.14,6.38-5.3,13.01c1.8,4.2,2.86,8.76,4.49,13.06c1.91,5.04,0.41,7.48-4.62,7.99c-2.41,0.24-4.77,0.96-7.15,1.51
			c-9.18,2.15-10.5,5.69-5.16,13.68c0.83,1.24,1.52,2.59,2.7,4.6c-14.33,1.64-27.8,4.37-39.24,13.31c-2.82,2.2-3.91-0.34-5.35-1.85
			C146.33,107.63,146.26,106.52,148.1,105.37z M132.54,88.69c5.08-0.15,5.82,4.76,5.4,9.06c-0.66,6.73,3.65,10.35,7.44,14.23
			c2.04,2.09,3.02,3.33,0.75,6.19c-2.49,3.13-4.22,7.04-3.83,11.37c0.28,3.15-1.36,3.91-3.7,4.54c-2.99,0.81-2.5-2.14-2.86-3.29
			c-3.34-10.66-8.95-20.54-9.97-31.98C125.7,93.61,127.19,88.84,132.54,88.69z M106.96,93.46c4.17,0.14,9.53-3.39,12.31,2.75
			c2.3,5.07,4.07,10.42,5.95,15.7c3.82,10.68,7.56,21.4,11.78,33.38c-5.52-1.81-9.61-4.02-14.24-4.39
			c-1.95-0.16-3.28-1.45-4.02-3.82c-4.08-13.13-8.42-26.17-12.58-39.27C105.68,96.3,104.64,93.39,106.96,93.46z M99.39,95.47
			c2.44-1.42,2.81,0.72,3.36,2.44c4.09,12.88,8.18,25.75,12.28,38.62c0.15,0.48,0.39,0.93,0.62,1.46c0.25,1.89-1.14,1.98-2.28,1.98
			c-1.67,0-3.75,2.17-4.89-1.08c-4.37-12.5-8.84-24.96-13.2-37.46C93.89,97.43,97.2,96.75,99.39,95.47z M49.03,167.85
			c6.9-3.4,14.56-3.75,21.73-6.12c2.82-0.93,6.45-1.26,6.17-5.16c-0.28-3.95-4.08-4.88-7.14-5.48c-2.59-0.5-5.34-0.02-8.02-0.16
			c-2.72-0.14-4.92-1.61-4.96-4.57c-0.05-3.29,2-5.3,5.23-5.07c6.06,0.43,12.09,1.23,18.15,1.61c4.11,0.26,9.03,0.87,10.35-4.69
			c1.16-4.91-1.63-8.94-5.23-11.95c-1.7-1.42-3.79-2.29-5.64-3.51c-4.21-2.76-4.37-7.47-0.41-10.45c4.58-3.43,15.45-0.3,17.75,5.13
			c0.5,1.17,0.91,2.38,1.33,3.58c2.22,6.27,6.74,12.88,5.98,18.72c-0.74,5.71-9.64,5.82-14.2,9.89
			c-7.58,6.77-14.37,14.19-17.78,24.13c-1.79,5.2-3.93,7.98-8.7,6.46c-5.3,0.12-9.81-1-14.24-2.39c-2.12-0.67-4.09-1.96-4.09-4.82
			C45.3,170.35,46.88,168.91,49.03,167.85z M60.6,156.13c4-1.67,7.99-1.28,12.86-0.12c-1,1.29-1.15,1.65-1.31,1.65
			c-3.71,0.09-7.27,4.68-11.09,0.47C60.66,157.69,60.51,156.17,60.6,156.13z M58.23,198.59c-7.75-3.65-15.04-8.49-15.87-19.74
			c15.11,6.64,30.41,5.69,45.61,5.87c10.19,0.12,11.03,0.94,12.11,11.74c0.54,5.39,1.42,10.03,8.11,10.67
			c5.13,0.5,8.41,4.81,8.99,9.92c0.84,7.37,1.56,14.96-1.22,22.21c0.39,7.11-1.95,7.89-7.38,4.14c-4.94-3.41-8.95-6.39-9.72-13.72
			c-1.03-9.83-8.14-15.97-15.37-21.45C75.04,205.08,66.38,202.44,58.23,198.59z"/>
		<path class="st3" d="M244.24,33.02c-4.32,3.11-7.61,6.84-9.86,11.47c-1.75,3.61-3.69,3.61-6.98,1.71
			c-6.29-3.63-13.04-6.21-20.2-2.59c-5.19,2.62-8.14,6.38-5.3,13.01c1.8,4.2,2.86,8.76,4.49,13.06c1.91,5.04,0.41,7.48-4.62,7.99
			c-2.41,0.24-4.77,0.96-7.15,1.51c-9.18,2.15-10.5,5.69-5.16,13.68c0.83,1.24,1.52,2.59,2.7,4.6c-14.33,1.64-27.8,4.37-39.24,13.31
			c-2.82,2.2-3.91-0.34-5.35-1.85c-1.24-1.29-1.31-2.41,0.54-3.56c7.27-4.54,4.61-11.68,3.68-18.07c-0.51-3.48-2.52-6.69-3.42-10.14
			c-1.88-7.16,0.58-9.92,7.35-8.63c3.11,0.59,6.21,1.24,9.34,1.62c5.5,0.66,9.99-0.63,12.55-6.69c2.63-6.22-0.7-10.01-4.59-13.21
			c-4.6-3.78-9.73-6.85-14.58-10.3c-2.47-1.75-5.19-3.75-4.1-7.41c1.1-3.7,4.42-4.47,7.65-4.78c6.72-0.64,12.24,1.66,17.1,6.83
			c13.85,14.73,18.61,13.42,25.23-6.25c1.55-4.59,3.39-9.12,5.55-13.42c1.76-3.5,5-5.08,8.71-4.04c3.93,1.1,6.03,3.89,6.03,8.5
			c0,3.93-0.47,7.69-1.57,11.42c-0.79,2.65-2.05,5.29,0.54,7.85c2.92,2.88,5.55,0.64,8.11-0.36c1.76-0.69,3.26-2.21,4.8-3.48
			C238.66,33.01,240.83,31.44,244.24,33.02z"/>
		<path class="st3" d="M219.76,135.07c1.59-13.98,0.1-25.64-11.61-32.94c0.07-11.49-8.57-10.35-15.35-11.92
			c-1.86-0.43-3.21-1.78-3.21-3.71c0-2.21,1.97-2.48,3.63-3.02c5.79-1.89,11.82-2.67,17.54-5c4.09-1.66,3.05,2.76,3.37,4.87
			c1.14,7.53,1.11,15.29,4.56,22.45c-1.03-12.82-1.89-25.66-3.16-38.45c-0.48-4.83-5.05-6.67-7.86-9.78
			c-1.77-1.96-4.9-3.52-3.49-6.94c1.27-3.09,4.12-4.13,7.25-4.34c4.95-0.34,9.75,0.01,14.09,2.87c5.5,3.62,9.21,2.28,12.44-3.79
			c4.78-8.98,10.19-11.01,18.77-8.22c6.62,2.16,8.8,8.82,3.11,12.59c-11.35,7.51-10.73,16.53-5.83,27.23
			c1.29,2.81,1.4,4.93-1.18,7.44c-10.35,10.09-13.75,22.72-11.22,37.29c0.54,3.09,1.64,5.51-3.82,4.8
			C231.44,125.66,226.4,131.3,219.76,135.07z"/>
		<path class="st4" d="M410.3,199.3c1.15,1.42,1.42,5.29,4.64,3.2c8.45-5.5,18-9.53,23.83-18.71c5.02-7.9,2.15-16.54-6.22-19.96
			c-2.77-1.13-3.97-1.47-4.75,2.54c-1.55,8-2.87,16.17-6.55,23.54c-0.26,1.17-0.53,2.33-0.87,3.82c-1.45-1.87-1-3.3-0.12-4.73
			c3.04-16.68,6.94-33.23,6.7-50.39c-0.05-3.26,0.41-7.13-3.73-8.24c-4.28-1.16-7.71,0.3-9.74,4.63c-1.29,2.75-2.39,5.61-3.67,8.37
			c-1.69,3.64-1.92,8.77-5.66,10.45c-4.39,1.97-3.11,4.49-2.19,7.6c2.3,7.74,4.84,15.46,3.89,25.84
			c-3.31-12.35-5.56-22.86-9.76-32.7c-1.35-3.16-1.66-7.87-5.47-8.37c-3.59-0.47-3.16,4.54-5.11,6.63c-1.2,1.29-2.44,2.54-3.52,3.94
			c-5.6,7.23-11.16,14.51-17.34,22.55C384.03,177.45,397.65,183.73,410.3,199.3z"/>
		<path class="st3" d="M376.75,116c-0.09-8.2,3.21-15.06,2.06-22.9c-0.59-4.01,4.74-6.42,9.31-6.66c4.45-0.23,5.07,2.47,5.29,6.32
			c0.18,3.22,0.08,7.11,3.63,8.66c3.96,1.72,6.11-1.81,8.68-4.01c2.07-1.77,4.11-3.66,6.42-5.01c2.76-1.63,5.59-1.28,8.18,0.89
			c2.64,2.21,1.07,4.75,0.51,7.09c-2.71,11.32-1.23,13.03,10.04,11.37c1.69-0.25,3.38-0.53,5.07-0.65c5.41-0.38,8.42,3.49,6.39,8.76
			c-1.08,2.79-2.98,5.34-4.89,7.64c-6.75,8.15-6.33,11.02,2.74,16.31c6.35,3.71,7.53,9.3,3.16,14.88c-2.22,2.83-4.63,4.29-8.26,2.56
			c-3.28-1.56-5.7-2.91-5.7-7.66c0.01-6.17,2.38-12.12,0.78-18.48c-1.12-4.44-2.93-7.57-7.17-8.77c-4.02-1.13-7.11,0.8-9.84,3.6
			c-4.37,4.48-5.62,10.75-8.13,16.3c-0.94,2.09-1.51,4.86-4.07,4.88c-2.4,0.03-3.7-2.37-4.66-4.47c-3.07-6.72-5.96-13.52-9.03-20.24
			c-1.15-2.53-2.3-5.09-5.62-5.34C376.59,120.68,376.6,120.56,376.75,116z"/>
		<path class="st3" d="M333.64,128.17c0.48,1.68-0.37,4.23,1.33,4.99c7.98,3.54,5.29,8.32,1.67,13.34
			c-0.76,1.05-1.66,2.34-0.73,3.44c1.51,1.8,3.34,3.14,0.51,5.42c-2,1.61-4.12,2-6.1,0.69c-3.57-2.37-5.57-2.17-7.53,2.41
			c-1.63,3.79-5.03,3.8-7.67,0.43c-2.71-3.47-4.72-3.49-8.34-0.54c-5.82,4.75-14.59,1.04-17.66-7.21c-1.16-3.11-1.63-3.47-4.39-1.93
			c-4.73,2.63-7.72,2.39-8.59-4.92c-0.69-5.84-6.14-2.91-9.73-2.98c-0.76-1.29-0.47-3,0.6-3.23c5.32-1.14,7.59-4.15,7.39-10.08
			c-0.11-3.22,2.92-3.99,5.48-3.42c6.85,1.52,11.04,0.16,11.62-8.57c0.25-3.83,4.61-5,8.08-5.3c3.41-0.29,6.02,1.32,7.63,4.76
			c0.85,1.82-0.29,6.27,2.7,5.08c3.43-1.37,6.77,2.72,10.18-1.28c2.6-3.04,6.88-6.1,10.69-0.6l-0.01,0.03
			c-2.95-1-5.4-0.31-9.07,3.59c7.22-2.19,6.4,6.97,11.93,5.86L333.64,128.17z M315.69,131.11c-4.37-7.77-6.62-8.17-12.84-2.48
			C307.53,128.53,311.8,128.5,315.69,131.11z"/>
		<path class="st5" d="M86.1,236.29c4.27,4.91,9.27,8.8,14.58,12.23c-6.38-5.35-12.37-11.48-18.47-17.5
			C83.32,232.84,84.62,234.59,86.1,236.29z"/>
		<path class="st5" d="M418,236c-8,8-17,14-27,19c-22,11-48,14-72,22c-13.58,4.31-27.07,6.62-40.52,7.5
			c18.94-1.11,37.82-3.66,56.54-8.1c27.26-6.45,53.48-15.69,76.84-32.58c5.75-4.15,10.46-8.8,13.33-14.44
			C422.93,231.68,420.55,233.9,418,236z"/>
		<path class="st5" d="M168.16,270.92c-0.68-0.17-1.36-0.33-2.04-0.5c-24.23-6.33-47.91-14.29-68.34-30.31
			c-7.3-5.72-12.76-12.81-13.15-22.93c-0.17-4.47-2.84-5.45-6.24-6.23c-1.31,7.66,0.24,14.21,3.82,20.07
			c6.1,6.02,12.09,12.15,18.47,17.5c0.71,0.46,1.43,0.92,2.16,1.36c8.78,5.4,17.78,9.98,26.95,13.88c0.4,0.08,0.8,0.17,1.21,0.24
			C143.49,265.95,155.86,268.4,168.16,270.92z"/>
		<path class="st5" d="M391,255c10-5,19-11,27-19c2.55-2.1,4.93-4.32,7.2-6.62c2.99-5.85,4.01-12.77,2.14-21.32
			c-3.4,1.59-5.47,2.94-5.29,7.39c0.3,7.51-3.04,13.89-7.83,19.31c-6.76,7.64-15.25,12.67-23.97,17.2
			c-34.53,17.92-71.63,25.22-109.5,27.48c-29.07,1.73-58.15,1.31-86.9-3.25c26.19,5.22,52.15,9.46,78.25,8.62
			c2.13-0.09,4.25-0.19,6.38-0.31c13.45-0.88,26.94-3.19,40.52-7.5C343,269,369,266,391,255z"/>
		<path class="st5" d="M193.86,276.19c-8.6-1.36-17.17-3.11-25.7-5.27c-12.3-2.53-24.67-4.97-37.16-6.92
			c-0.41-0.07-0.8-0.16-1.21-0.24c29.22,12.42,60.26,17.84,91.89,20.12c16.82,1.22,33.65,1.62,50.42,0.92
			C246.01,285.65,220.05,281.41,193.86,276.19z"/>
		<path class="st6" d="M288.97,275.06c24.42-1.2,34.75-4.13,42.58-33.65c1.24-4.68,1.9-9.59,2.33-14.45
			c1.4-16.03-7.57-32.36-20.09-37c-13.51-5.01-28.27,0.62-36.58,14.82c-8.77,14.98-11.83,31.79-9.97,49.07
			C268.67,267.27,278.23,276.87,288.97,275.06z M310.29,196.34c9.35,2.73,18.2,14.09,17.86,22.94c-0.25,6.77-5.92,12.9-13.76,13.51
			c-11.13,0.86-21.72-1.29-30.66-9.17c0.02-0.46-0.18-0.68-0.62-0.65c-4.36-5.45-5.1-10.9-0.03-16.35
			C287.83,197.96,300.01,193.34,310.29,196.34z M284.32,236.26c9.63,0.09,18.73,2.67,26.72,8.56c7.87,5.8,8.55,11.75,2.7,20.14
			c-0.43-0.03-0.64,0.19-0.62,0.65c-14.74,12.89-35.56,5.58-40.04-14.04C271,242.39,275.37,236.17,284.32,236.26z"/>
		<path class="st6" d="M283.11,206.6c-0.01,0.01-0.01,0.01-0.02,0.02c-0.01,0.02-0.03,0.04-0.04,0.06L283.11,206.6z"/>
		<path class="st3" d="M298.8,73.75c-2.12-3.82,0.25-5.95,4.2-7.73c5.61-2.52,11.34-4.37,16.47,0.16c3.55,3.13,1.75,7.56,0.33,11.44
			c-1.05,2.88-2.21,5.72-3.27,8.6c-4.34,11.77,1.83,20.32,13.71,18.77c5.89-0.77,11.31-2.94,15.51-7.74
			c2.15-2.46,4.4-4.84,6.71-7.14c5.97-5.94,13.56-6.59,19.03-1.72c4.9,4.37,5.75,14.32,1.39,20.49c-3.74,5.3-8.92,9.67-8.2,17.4
			c0.16,1.72-1.66,2.22-3.1,2.73c-2.24,0.79-3.04-0.57-3.76-2.4c-3.4-8.58-10.35-10.92-18.24-11.62c-1.68-0.15-3.66,0.11-4.97-0.74
			c-5.7-3.69-11.03-3.21-16.33,0.76c-2.85,2.13-4.18,1.53-4.59-2.37c-1.24-11.78-4.24-22.81-13.44-30.68
			C297.77,79.83,299.44,77.13,298.8,73.75z"/>
		<path class="st6" d="M156.76,263.61c2.53,3.92,17.71,3.92,20.48-0.03c6.79-9.68,9.09-20.85,9.23-37.14
			c0.31-9.23-2.84-21.23-14.67-28.72c-7.31-4.63-9.29-3.27-10.51,5.68c-0.58,4.29-1.88,8.47-2.86,12.7
			c-0.44,1.9-1.35,3.47-0.36,5.81c5.22,12.28,3.57,24.62-0.32,36.89C157.26,260.38,155.75,262.04,156.76,263.61z"/>
		<path class="st6" d="M178.39,268.93c4.6,0.88,8.57,1.65,13.03,2.51c-2.71-19.7,2.25-35.92,15.45-48.98
			c7.02-6.94,12.71-7.44,20.92-1.98c3.57,2.37,5.62-0.64,7.55-1.99c2.38-1.66,0.58-4.09-1.27-5.64c-4.3-3.61-5.26-7.94-3.94-13.68
			c1.61-7-1.95-11.11-8.37-12.58c-8.64-1.98-13.63,0.34-18.55,8.1c-4.03,6.37-5.29,15.39-14.51,17.01
			c-1.59,0.28-24.96-22.48-24.7-21.03C167.34,209.49,190.58,252.57,178.39,268.93z"/>
		<path class="st3" d="M274.37,53.77c2.26-3.64,5.59,0.06,7.96-3.18c2.58-3.52,5.36-5.18,1.24-9.77c-3.27-3.64,0.43-10,5.44-8.64
			c7.05,1.9,10.25-2.91,13.59-6.89c5.88-6.98,11.88-6.8,15.06,1.78c1.35,3.64,3.28,2.77,5.64,2.77c7,0,9.42,3.04,8.18,10.44
			c-0.44,2.64-0.51,4.37,2.56,5.12c3.28,0.8,4.56,3.45,4.41,7.02c-0.2,4.67-4.57-0.35-5.37,2.8c0.78,3.71,7.01,4.19,5.98,7.61
			c-1.34,4.44-6.03-1.03-9.1,1.36c-2.37,1.84-3.47,0.2-4.72-2.4c-5.41-11.29-10.69-12.82-20.86-6.56c-2.9,1.78-5.61,3.54-7.6-1.3
			c-2.68-6.5-7.33-5.29-11.43-2.28C281.91,54.18,278.76,54.91,274.37,53.77z M316.23,47.13c8.71-1.24,8.87,5.29,9.83,11.27
			c3.31-3.7,3.46-6.85,1.05-10.18C324.43,44.5,321.19,43.48,316.23,47.13z M295.62,44.73c1.8-7.38,7.82-5.13,12.37-6.56
			c-2.63-4.46-6.23-3.63-9.29-2.38C295.58,37.07,293.68,39.83,295.62,44.73z"/>
		<path class="st4" d="M111.2,229.05c1.19,3.5-0.09,8.57,4.76,10.23c2.77-7.25,2.06-14.84,1.22-22.21
			c-0.58-5.11-3.86-9.43-8.99-9.92c-6.69-0.65-7.57-5.28-8.11-10.67c-1.08-10.8-1.92-11.62-12.11-11.74
			c-15.19-0.18-30.5,0.76-45.61-5.87c0.83,11.25,8.12,16.09,15.87,19.74c8.16,3.84,16.82,6.49,25.25,9.66
			C98.22,208.09,106.2,214.31,111.2,229.05z"/>
		<path class="st3" d="M63.63,180.24c-5.3,0.12-9.81-1-14.24-2.39c-2.12-0.67-4.09-1.96-4.09-4.82c0-2.69,1.58-4.13,3.72-5.19
			c6.9-3.4,14.56-3.75,21.73-6.12c2.82-0.93,6.45-1.26,6.17-5.16c-0.28-3.95-4.08-4.88-7.14-5.48c-2.59-0.5-5.34-0.02-8.02-0.16
			c-2.72-0.14-4.92-1.61-4.96-4.57c-0.05-3.29,2-5.3,5.23-5.07c6.06,0.43,12.09,1.23,18.15,1.61c4.11,0.26,9.03,0.87,10.35-4.69
			c1.16-4.91-1.63-8.94-5.23-11.95c-1.7-1.42-3.79-2.29-5.64-3.51c-4.21-2.76-4.37-7.47-0.41-10.45c4.58-3.43,15.45-0.3,17.75,5.13
			c0.5,1.17,0.91,2.38,1.33,3.58c2.22,6.27,6.74,12.88,5.98,18.72c-0.74,5.71-9.64,5.82-14.2,9.89
			c-7.58,6.77-14.37,14.19-17.78,24.13C70.54,178.98,68.4,181.76,63.63,180.24z"/>
		<path class="st5" d="M96.59,175.59c1.76-3.26,4.66-5.98,7.46-8.42c18.16-15.84,41.27-7.38,45.41,16.81
			c1.48,8.63,1.09,17.53-0.11,26.24c-0.36,2.62-1.89,4.69,2.1,5.64c4.05,0.96,3.51-2.04,4.28-4.29c3.35-9.92,4.3-20.19,2.54-30.43
			c-3.83-22.21-21.35-38.47-44.86-28.99c-12.89,5.2-21.68,14.96-28.8,27.59C90.53,182.22,93.85,180.65,96.59,175.59z"/>
		<path class="st4" d="M121.6,218.94c9.48,4.02,13.46,12.58,16.17,22.14c1.64,5.81,2.48,12.36,10.7,6.38
			c2.23-1.62,5.68-0.59,8.32,1.08c0.65-5.66,0.85-11.33,0.3-17.02c-0.68-7.02-2.85-12.28-10.75-12.92
			c-5.13-0.41-8.06-3.81-8.45-9.76c-0.39-5.96-1.66-11.82-7.35-15.02c-3.58-2.01-8-1.61-8.22,2.57c-0.43,8.15-3.98,9.29-10.69,7.51
			C118.15,206.99,119.42,213.29,121.6,218.94z"/>
		<path class="st6" d="M241.76,218.56c0.86,0.64,23.87,0.62,24.67-0.18c0.68-0.68,1.26-1.58,1.58-2.51
			c2.39-7.08,6.26-13.3,10.96-20.11c-10.95,1.33-11.13,1.3-9.34-8.49c0.72-3.95-1.01-4.49-3.82-4.44c-3.48,0.06-5.74,2.25-7.82,4.95
			c-5.93,7.68-7.55,7.89-14.21,1.05c-3.63-3.73-6.53-3.21-8.76,1.08C232.19,195.33,237.04,215.07,241.76,218.56z"/>
		<path class="st5" d="M199.61,273.21c7.46-0.31,14.73,2.71,23.96,1.21c-16.21-16.79-10.55-32.06,1.63-46.75
			c2.26-2.73,1.46-4.14-1.29-5.69c-6.51-3.68-11.44,0.07-15.54,4.29c-11.16,11.48-15.22,25.76-13.31,42.09
			C195.43,271.52,196.85,273.32,199.61,273.21z"/>
		<path class="st7" d="M253.2,250.75c4.37-7.66,10.88-14.11,12.11-23.57c0.27-2.08-0.2-3.03-2.51-3.51
			c-23.35-4.87-33.19,0-44.28,22.25c-0.44,0.88-0.8,1.8-1.73,3.9c11.68,0.46,22.41-0.09,33.03,1.5
			C250.94,251.48,252.81,251.43,253.2,250.75z"/>
		<path class="st7" d="M236.42,142.31c3.06-2.81,8.06-5.25,4.35-10.34c-3.3-4.52-7.45-1.03-11.04,0.93
			c-1.07,0.58-2.12,1.25-3.1,1.99c-23.17,17.29-33.93,41.61-34.55,71.66c5.66-8.82,12.3-17.12,16.74-26.58
			C215.69,165.29,224.87,152.92,236.42,142.31z"/>
		<path class="st7" d="M333.45,198.73c2.17,2.78,3.11-0.14,4.4-1.32c8.14-7.39,14.44-16.54,21.4-25.05l-0.07,0.07
			c4.11-8.98,11.23-15.46,17.13-22.94c1.89-2.4,3.82-4.66,4.57-7.73c0.6-2.47,1.47-5.17-1.06-7.05c-2.23-1.66-4.29-0.05-6.01,1.14
			c-20.05,13.92-32.55,34.49-43.75,56.18C328.12,195.8,331.92,196.77,333.45,198.73z"/>
		<path class="st5" d="M395.19,222.44c8.1-13.59,8.1-13.59-2.21-25.67c-0.65-0.76-1.37-1.46-2.04-2.21
			c-15.05-16.87-30.76-13.79-45.36-0.41c-8.21,7.52-7.96,7.82-1.84,17.22C363.86,186.51,377.59,189.47,395.19,222.44z"/>
		<path class="st3" d="M164.81,190.81c8.98,2.26,15.51,7.97,21.71,15.26c1.09-11.24,3.44-21.6,7.05-31.66
			c0.47-1.31,1.39-2.96-0.21-4.18c-3.67-2.8-3.09-6.62-2.37-10.49c0.32-1.71,1.28-3.78-1.23-4.39c-2.16-0.52-4.62-0.5-5.86,1.84
			c-1.04,1.96-1.3,4.38-2.14,6.48c-1.64,4.1-3.29,8.5-8.85,6.23c-1.92-0.78-2.48,0-3.08,1.73c-1.53,4.35-3.79,8.25-6.24,12.13
			C162.37,185.68,161.4,189.95,164.81,190.81z"/>
		<path class="st7" d="M262.48,90.06c10.45-3.76,11.27-3.14,11.79,8.7c0.24,5.38,0.62,10.74,0.87,16.12
			c0.39,8.64-9.84,21.47-16.85,21.19c0,0-0.14-0.26-0.14-0.26c-6-12.98-9.37-26.08-1.44-39.63l-0.07,0.09
			c2.51-1.55,4.48-3.66,5.94-6.31L262.48,90.06z"/>
		<path class="st6" d="M258.15,135.81c0,0,0.14,0.26,0.14,0.26c0,4.08,6.38,5.71,3.51,10.99c-3.4-0.23-5.22-3.36-7.41-5.48
			c-12.8-12.34-13.27-39.82-1.1-52.8c13.38-14.29,36.36-14.4,48.4-0.27c2.32,2.72,3.94,5.83,5.28,9.19
			c0.79,1.98,1.98,4.25-0.26,5.44c-2.81,1.48-2.72-1.7-3.5-3.35c-2.53-5.38-5.47-10.31-10.89-13.07c-7.3-3.73-11.14-1.93-11.74,6.5
			c-0.51,7.2-0.02,14.47-0.06,21.71c-0.01,1.53,1.59,4.17-1.23,4.23c-2.41,0.05-1.59-2.75-1.76-4.34
			c-0.85-7.69,0.08-15.5-1.69-23.16c-0.64-2.75-0.13-5.72-3.82-6.43c-4.13-0.8-7.28,0.65-9.53,4.82c0,0,0.08-0.1,0.09-0.1
			c-4.54-0.61-6.27,1.77-5.94,6.31c0,0,0.07-0.09,0.07-0.09C245.96,102.15,246.91,127.99,258.15,135.81z"/>
		<path class="st6" d="M385.04,245.16c-1.48-3.31-4.31-4.9-8.47-2.83c-8.25,4.11-11.68,2.02-12.81-7.36
			c-0.37-3.05-1.13-5.41-4.21-4.84c-4.76,0.89-9.61,3.5-9.99,8.78c-0.69,9.62-3.77,18.01-9.44,27.22c15-4.03,28.22-8.18,40.96-13.96
			C384.02,250.85,386.49,248.39,385.04,245.16z"/>
		<path class="st5" d="M244.51,276.37c4.38,0.03,8.76,0,13.6,0c-1.56-6.33-3.2-12.2-4.38-18.18c-0.53-2.68-1.77-3.34-3.99-3.33
			c-10.92,0.03-21.83,0.01-32.43,0.01C222.92,273.84,225.84,276.24,244.51,276.37z"/>
		<path class="st6" d="M137,145.29c-5.52-1.81-9.61-4.02-14.24-4.39c-1.95-0.16-3.28-1.45-4.02-3.82
			c-4.08-13.13-8.42-26.17-12.58-39.27c-0.48-1.52-1.52-4.43,0.8-4.35c4.17,0.14,9.53-3.39,12.31,2.75
			c2.3,5.07,4.07,10.42,5.95,15.7C129.04,122.6,132.78,133.31,137,145.29z"/>
		<path class="st3" d="M138.09,257.78c0.45,0.2,0.96,0.23,1.41,0.4c13.4,5,13.4,5,17.29-9.64c-2.65-1.67-6.1-2.7-8.32-1.08
			c-8.22,5.98-9.06-0.57-10.7-6.38c-2.7-9.56-6.69-18.12-16.17-22.14c-0.03,3.36,0.07,6.74-0.12,10.09
			c-0.39,6.81-5.54,14.93-1.68,19.85C123.66,253.82,131.81,254.98,138.09,257.78z"/>
		<path class="st6" d="M152.41,116.25c14.42-13.53,31.69-16.89,49.62-12.72c15.22,3.54,19.42,22.29,9.61,35.2
			c-7.76,10.2-26.49,14.56-39.5,15.98c-1.61-3.09,4.82-2.22,2.47-5.7l-0.09,0.12c3.85,0.92,3.94-2.32,4.54-4.78
			c2.26-9.37,1.67-18.74,0.04-28.15c-0.64-3.71-0.07-8.57-4.89-8.82c-4.42-0.23-9.33,0.32-11.41,5.97l0.09-0.08
			c-3.02-1.33-4.6-0.4-4.49,3.2c0,0,0.1-0.09,0.1-0.09c-2.14-2.06-3.26,0.56-4.8,1.19C153.27,117.14,152.84,116.69,152.41,116.25z
			 M205.28,139.01c7.43-8.56,9.14-15.95,5.46-23.6c-3.74-7.77-12.87-12.32-22.18-11.42c-4.68,0.45-6.61,3.24-6.09,7.69
			c0.99,8.37,2.1,16.76,3.76,25.01c2.01,9.99,5.2,11.33,13.73,6.47c1.67-0.95,3.14-2.32,4.7-3.5
			C204.64,139.21,204.84,138.99,205.28,139.01z"/>
		<path class="st6" d="M161.93,178.99c-3.27-12.19-9.12-21.61-18.44-28.63c-2.99-2.25-3.45-6.69-4.4-10.36
			c-0.74-2.86,1.77-2.9,3.5-3.48c13.33-4.46,26.44,6.63,25.93,22.42C168.29,165.86,166.58,172.61,161.93,178.99z"/>
		<path class="st7" d="M174.62,149.01c-2.84,1.24-4.21,0-5.3-2.88c-2.07-5.45-5.77-10.07-11.02-11.44
			c-7.16-1.87-7.73-5.98-5.64-12.09l-0.08,0.1c1.98-2.1,3.96-4.21,5.94-6.31c0,0-0.1,0.09-0.1,0.09c1.83-0.54,3.69-1.02,4.49-3.2
			c0,0-0.09,0.08-0.09,0.08c2.71-1.03,5.38-2.24,8.15-3.02c2.1-0.59,4.64-1.03,5.08,2.4c1.59,12.22,3.71,24.48-1.51,36.39
			L174.62,149.01z M159.32,125.53c4.34-0.06,7.91-1.07,11.01-3.67c0.15-0.13-0.31-1.74-0.71-1.86c-4-1.22-6.51,2.17-9.63,3.7
			C159.84,123.77,159.81,124.15,159.32,125.53z"/>
		<path class="st6" d="M355.1,227.24c6.54-2.73,11.45-0.04,12.62,6.73c0.45,2.6-0.68,6.76,3.22,6.49c3.37-0.23,7.09-1.79,9.03-5.24
			c2.91-5.2,0.68-15.28-4.06-19.9c-5.05-4.93-13.97-5.85-20.36-1.63c-5.93,3.92-8.42,9.56-6.11,17.16
			C351.48,229.53,353.17,228.05,355.1,227.24z"/>
		<path class="st6" d="M343.61,250.04c5.26-16.35,0.68-36.02-10.36-45.85c8.32,24.22,3.01,45.6-11.7,65.81
			C333.99,270.28,339.38,263.17,343.61,250.04z"/>
		<path class="st3" d="M98.38,183.11c5.37,3.57,5.21,9.47,5.71,15.1c0.17,1.96-0.18,4.25,2.57,4.59c3.4-4.86,11.97,0,13.73-9.99
			c1.07-6.06-1.35-9.65-2.6-14.13c-1.19-4.27-1.76-11.48-5.34-11.73c-5.1-0.35-9.06,5.23-12.39,9.76c-0.75,1.02-1.38,2.14-2.11,3.17
			C97.09,181.14,97.08,182.25,98.38,183.11z"/>
		<path class="st3" d="M125.76,98.82c-0.05-5.21,1.43-9.97,6.78-10.13c5.08-0.15,5.82,4.76,5.4,9.06
			c-0.66,6.73,3.65,10.35,7.44,14.23c2.04,2.09,3.02,3.33,0.75,6.19c-2.49,3.13-4.22,7.04-3.83,11.37c0.28,3.15-1.36,3.91-3.7,4.54
			c-2.99,0.81-2.5-2.14-2.87-3.29C132.39,120.15,126.78,110.27,125.76,98.82z"/>
		<path class="st5" d="M330.36,79.77c5.97-7.88,12.15-15.57,20.59-20.63c7.99-4.79,12.23-2.2,12.7,7.63c0.15,3.1-0.05,6.21,0,9.32
			c0.04,2.69,0.11,5.75-3.27,5.65c-2.58-0.07-4.66,3.52-8.08-0.62c-6.1-7.4-13.66-3.46-20.59-0.1
			C331.27,80.6,330.82,80.18,330.36,79.77z"/>
		<path class="st6" d="M246.41,185.27c0.49,2.34,2.14,5.21,4.4,3.99c4.26-2.31,9.78-6.42,9.38-10.76
			c-1-10.79-5.02-20.91-13.29-28.33c-1.12-1.01-2.07-0.98-3.25-0.19c-2,1.34-0.55,2.5,0.06,3.75c1.66,3.41,3.29,6.84,4.94,10.26
			c0.83,1.53,1.08,3.09,0.42,4.87c-1.72-0.99-1.12-2.65-1.59-3.87c-1.93-2.95-3.82-5.94-5.8-8.85c-0.88-1.29-1.95-2.39-3.51-0.83
			c-1.22,1.21-3,2.26-1.33,4.39C242.67,167.11,244.5,176.18,246.41,185.27z"/>
		<path class="st4" d="M366.43,207.51c12.96,1.58,19.27,10.28,17.41,25.86c-0.82,6.93,4.73,8.73,6.8,13.18
			c0.66,1.42,4.69-0.35,5.04-3.32c1.51-12.77-10.38-36.05-21.49-42.52c-6.6-3.84-12.94-0.94-16.3,7.44
			C360.75,207.9,363.65,207.17,366.43,207.51z"/>
		<path class="st4" d="M357.86,208.25c0.01-0.03,0.03-0.06,0.04-0.1c-0.03,0-0.07,0.01-0.1,0.01L357.86,208.25z"/>
		<path class="st3" d="M279.62,60.89c8.72,0.13,15.58,5.9,15.49,12.9c-0.04,2.88-0.48,4.42-3.8,3.11
			c-10.03-3.94-19.82-2.83-29.71,1.33c-6.18,2.6-4.14-4.4-5.73-6.99c-1.72-2.82-0.82-4.36,2.77-4.76
			C265.85,65.69,272.2,61.04,279.62,60.89z"/>
		<path class="st4" d="M414.33,221.22c-0.26-6.28,3.43-11.38,8.68-15.21c4.3-3.13,8.9-6.27,11.64-11.35
			c-7.28,4.07-14.27,8.51-21.23,12.99c-1.66,1.07-3.31,2.17-4.85,3.41c-10.27,8.23-13.38,18.19-9.25,31.29
			C406.74,236.75,414.81,232.99,414.33,221.22z"/>
		<path class="st3" d="M98.85,229.7c0.77,7.32,4.77,10.31,9.72,13.72c5.43,3.74,7.77,2.97,7.38-4.14
			c-4.85-1.66-3.57-6.73-4.76-10.23c-5-14.74-12.98-20.96-27.72-20.79C90.72,213.73,97.82,219.87,98.85,229.7z"/>
		<path class="st7" d="M343.38,161.37c-0.24-4.76,0.67-8.54-1.53-12.61c-1.45-2.68,1.01-6.98,4.35-8.52
			c9.99-4.59,20.11-8.88,30.19-13.27c1-0.44,2.26-1.77,3.05-0.09c0.53,1.12,0.1,2.75-1.27,3.17c-7.52,2.31-13.2,7.57-18.55,13.19
			C354.29,148.83,349.27,154.77,343.38,161.37z"/>
		<path class="st7" d="M115.65,137.99c0.25,1.89-1.14,1.98-2.28,1.98c-1.67,0-3.75,2.17-4.89-1.08c-4.37-12.5-8.84-24.96-13.2-37.46
			c-1.4-4,1.92-4.68,4.11-5.96c2.44-1.42,2.81,0.72,3.36,2.44c4.09,12.87,8.18,25.75,12.28,38.62
			C115.19,137.02,115.43,137.47,115.65,137.99z"/>
		<path class="st7" d="M283.09,119.25c0-8.65,0.11-17.31-0.03-25.96c-0.1-6.48,3.14-6.85,7.4-4.57c6.47,3.45,9.98,9.38,11.93,18.13
			c-10.55-2.59-14.79,3.98-16.79,13.65C284.76,120.08,283.93,119.66,283.09,119.25z"/>
		<path class="st7" d="M343.46,80.6c2.9-0.14,5.38,0.83,6.86,3.44c1.86,3.28-1.36,4.44-2.8,6.15c-3.06,3.62-6.24,7.19-10.56,9.17
			c-2.13,0.97-5.1,3.13-6.52,0.47c-1.62-3.03-4.41-6.98-1.71-10.59C332.4,84.33,337.32,81.09,343.46,80.6z"/>
		<path class="st3" d="M232.93,161.7c2.74,3.29,4.51,6.27,5.73,9.63c2.91,8,0.78,13.22-6.85,14.85c-3.36,0.72-5.5-3.35-8.44-4.86
			c-2.23-1.15,0.24-3.39,0.91-4.92C226.51,171.31,228.92,166.31,232.93,161.7z"/>
		<path class="st3" d="M274.04,180.01c-8.83,0.53-10.6-5.82-12.39-12.51c-2.37-8.88-7.48-16.17-13.01-23.19
			C262.8,151.84,269.46,165.07,274.04,180.01z"/>
		<path class="st3" d="M289.38,187.96c-0.6-6.63-2.4-12.39-5.86-19.48c5.57,1.99,6.37,5.91,7.79,8.99c1.77,3.86,3.27,3.35,4.73,0.04
			c1.02-2.32,1.41-5.22,4.67-4.88c2.15,0.23,4.4-2.08,6.22-0.4c2.28,2.12-0.51,4.13-0.94,6.19c-0.31,1.46-1.55,2.91-0.1,4.18
			c1.3,1.14,2.65,0.23,4.01-0.46c3.36-1.68,5.84-5.55,10.51-5.05c-4.19,6.66-9.65,8.93-16.64,7.84
			C298.87,184.19,294.31,186.36,289.38,187.96z"/>
		<path class="st5" d="M339.07,124.12c0.77-1.36-2.87-5.52,2.82-4.99c6.76,0.63,13.48,5.25,13.05,10.64
			c-0.47,5.83-7.4,6.82-9.52,6.2C341.5,134.83,337.79,130.54,339.07,124.12z"/>
		<path class="st6" d="M127.19,164.01c3.85,11.36,7.62,22.52,11.4,33.68C141.56,177.61,136.89,165.23,127.19,164.01z"/>
		<path class="st5" d="M267.84,266.99c-3.87-7.21-4.14-15.05-5.01-22.98c-11.34,10.42-2.09,20.71-0.46,31.13
			C264.62,272.4,269.97,270.96,267.84,266.99z"/>
		<path class="st7" d="M123.97,184.82c1.26,4.54,3.63,5.55,7.65,4.08c-2.34-7.28-4.67-14.51-6.99-21.75
			c-0.84-2.61-1.91-4.92-5.11-3.66c-3.76,1.48-1.67,3.99-0.86,6.25C120.45,174.76,122.54,179.69,123.97,184.82z"/>
		<path class="st7" d="M244.64,139.88c1.37,5.46-2.7,7.45-5.29,9.46c-7.93,6.12-13.2,14.28-17.74,23.22
			c-1.04,2.05-1.63,6.1-4.71,4.35c-3.59-2.04-0.41-5.05,0.77-7.1C224.56,157.85,233.64,148.08,244.64,139.88z"/>
		<path class="st3" d="M281.03,189.13c0.78,0.68,0.2,2.94,2.11,2.22c1.11-0.42,2.07-1.07,2.4-2.6c1.02-4.73-4.58-17.36-10.25-21.14
			c2.01,7.62,3.75,14.22,5.49,20.81C280.84,188.66,280.87,188.99,281.03,189.13z"/>
		<path class="st3" d="M327.23,188.74c1.35-2.19,5.56-4.79,2.34-8.2c-3.2-3.4-5.63,0.54-8.1,2.2c-1.41,0.94-2.61,2.23-3.9,3.36
			C321.1,186.81,323.48,194.81,327.23,188.74z"/>
		<path class="st5" d="M373.81,84.73c-5.54-1.54-8.53-4.08-6.32-10.34c1.17-3.3,0.12-6.94,0.45-10.54
			C372.38,69.9,374.19,76.67,373.81,84.73z"/>
		<path class="st6" d="M195.83,167.37c-4.4-7.95-1.63-12.58,12.03-19.76C203.64,154.54,199.76,160.91,195.83,167.37z"/>
		<path class="st5" d="M143.44,213.64c4.27-13.45,4.27-24.34-0.54-32.57C145.86,193.18,141.78,203.41,143.44,213.64z"/>
		<path class="st4" d="M326.57,100.41c-9.79-1.45-10.71-5.44-4.32-18.76C323.74,88.09,325.14,94.2,326.57,100.41z"/>
		<path class="st7" d="M359.18,172.43c3.5,1.08,4.13-2.45,5.55-4.24c2.61-3.28,5.01-6.7,8.28-9.18c0.52,0.48,1.04,0.96,1.55,1.44
			c-5.53,7.31-11.07,14.63-17.18,22.7c-1.98-5.5,4.52-6.7,1.87-10.79C359.25,172.36,359.18,172.43,359.18,172.43z"/>
		<path class="st7" d="M384.79,139.73c1.95,9.13-3.93,13.83-9.89,18.49C376.91,151.4,384.77,147.91,384.79,139.73z"/>
		<path class="st6" d="M152.65,122.6c-4.8,0.06-2.36,4.5-3.53,6.75c-0.57,1.09-0.55,2.61-2.14,2.47c-2.19-0.2-1.97-2.2-1.59-3.47
			c1.39-4.61,2.87-9.25,7.02-12.09c0.43,0.44,0.86,0.89,1.29,1.33c-0.57,1.66-3.34,2.77-1.13,5.12L152.65,122.6z"/>
		<path class="st4" d="M262.06,52.86c0.37,5,2,8.59-2.58,10.27c-1.94,0.71-4.96,0.65-4.98-1.14
			C254.47,57.43,258.92,56.62,262.06,52.86z"/>
		<path class="st4" d="M73.46,156.01c-1,1.29-1.15,1.65-1.31,1.65c-3.71,0.09-7.27,4.68-11.09,0.47c-0.41-0.45-0.56-1.97-0.46-2.01
			C64.6,154.46,68.59,154.85,73.46,156.01z"/>
		<path class="st6" d="M178.78,161.83c-0.53,1.53-0.8,4.29-3.39,4.51c-2.06,0.18-3.5-1.39-3.69-3.8c-0.25-3.17,1.76-3.81,4.08-4.04
			C177.64,158.31,179.26,158.53,178.78,161.83z"/>
		<path class="st5" d="M88.88,218.79c0.28,5.44,2.97,9.51,6.57,14.4C95.19,226.25,92.67,222.13,88.88,218.79z"/>
		<path class="st3" d="M194.2,94.72c3.73,0.16,7.06-1.38,9.34,2.11c0.62,0.95,0.12,2.19-1,2.33
			C199.35,99.55,196.14,99.65,194.2,94.72z"/>
		<path class="st3" d="M206.25,61.33c5.06,4.22,9.2,6.99,4.05,13.17C209.03,70.37,207.89,66.65,206.25,61.33z"/>
		<path class="st3" d="M330.8,118.69c5.38,1.67,6.11,4.9,2.84,9.49c0,0,0.01-0.01,0.02-0.01c1.16-3.87-1.74-6.36-2.87-9.45
			L330.8,118.69z"/>
		<path class="st5" d="M331.72,81.01c-0.35,1.21-1.35,1.48-2.05,0.86c-1.04-0.92,0.33-1.42,0.69-2.1
			C330.82,80.18,331.27,80.6,331.72,81.01z"/>
		<path class="st4" d="M357.8,208.16c-0.15,0.16-0.31,0.32-0.46,0.47c0.17-0.13,0.35-0.26,0.52-0.39
			C357.86,208.25,357.8,208.16,357.8,208.16z"/>
		<path class="st2" d="M421.25,189.9c-0.33-0.3-0.66-0.61-0.99-0.91c-0.88,1.43-1.33,2.86,0.12,4.73
			C420.72,192.23,420.99,191.07,421.25,189.9z"/>
		<path class="st4" d="M330.79,118.72c1.13,3.09,4.04,5.58,2.87,9.45c-5.54,1.1-4.72-8.05-11.94-5.86
			C325.38,118.41,327.84,117.72,330.79,118.72z"/>
		<path class="st4" d="M315.69,131.11c-3.89-2.61-8.17-2.58-12.84-2.48C309.07,122.94,311.32,123.34,315.69,131.11z"/>
		<path class="st7" d="M283.06,206.68c0.01,0.01,0.02,0.01,0.04,0.01c0.01-0.03,0.01-0.06,0.02-0.09
			C283.11,206.6,283.06,206.68,283.06,206.68z"/>
		<path class="st7" d="M283.12,222.98c0.43-0.03,0.64,0.19,0.62,0.65c2.02-2.4,3.51,0.02,4.96,0.82c7.3,4.02,14.99,5.81,23.21,5.53
			c12.28-0.42,16.76-8.82,10.66-20.23c-6.57-12.3-22.98-15.15-34.51-6.15c-1.51,1.18-2.17,4.19-4.96,3.1
			C281.91,212.12,283.2,217.55,283.12,222.98z"/>
		<path class="st7" d="M306.23,267.5c2.1-0.91,3.83-4.64,6.9-1.89c-0.02-0.46,0.18-0.68,0.62-0.65c-0.34-0.35-1.03-0.79-0.98-1.05
			c2.63-12.96,1-16.46-10.64-21.21c-6.14-2.51-12.54-4.03-19.23-3.6c-5.02,0.32-7.39,2.98-7.4,8.41
			C275.45,262.91,292.07,273.65,306.23,267.5z"/>
		<path class="st2" d="M313.12,265.61c-3.07-2.75-4.8,0.98-6.9,1.89c-14.15,6.15-30.78-4.59-30.73-19.99
			c0.02-5.43,2.38-8.09,7.4-8.41c6.69-0.43,13.09,1.09,19.23,3.6c11.64,4.75,13.27,8.25,10.64,21.21c-0.05,0.26,0.63,0.7,0.98,1.05
			c5.85-8.39,5.16-14.34-2.7-20.14c-7.99-5.89-17.09-8.47-26.72-8.56c-8.95-0.09-13.32,6.13-11.23,15.31
			C277.57,271.19,298.39,278.5,313.12,265.61z"/>
		<path class="st2" d="M288.05,203.59c11.53-9,27.94-6.15,34.51,6.15c6.09,11.41,1.61,19.81-10.66,20.23
			c-8.22,0.28-15.91-1.51-23.21-5.53c-1.45-0.8-2.94-3.21-4.96-0.82c8.93,7.88,19.52,10.03,30.66,9.17
			c7.84-0.61,13.51-6.74,13.76-13.51c0.33-8.86-8.51-20.21-17.86-22.94c-10.3-3.01-22.52,1.64-27.23,10.34
			C285.88,207.82,286.53,204.78,288.05,203.59z"/>
		<path class="st2" d="M283.11,206.6c-5.1,5.46-4.36,10.92,0.01,16.37C283.2,217.52,281.89,212.06,283.11,206.6z"/>
		<path class="st2" d="M316.23,47.13c4.95-3.65,8.2-2.64,10.88,1.08c2.41,3.33,2.26,6.49-1.05,10.18
			C325.1,52.42,324.94,45.9,316.23,47.13z"/>
		<path class="st2" d="M295.62,44.73c-1.94-4.9-0.04-7.66,3.08-8.94c3.07-1.25,6.67-2.08,9.29,2.38
			C303.44,39.61,297.42,37.35,295.62,44.73z"/>
		<path class="st2" d="M258.15,135.81c-11.24-7.82-12.18-33.66-1.44-39.63C248.78,109.73,252.14,122.83,258.15,135.81z"/>
		<path class="st2" d="M256.63,96.27c-0.33-4.55,1.4-6.92,5.94-6.31C261.11,92.61,259.13,94.72,256.63,96.27z"/>
		<path class="st7" d="M205.28,139.01c-0.44-0.02-0.64,0.19-0.62,0.65c-2.74-2.67-4.31,0.59-6.15,1.56
			c-5.19,2.75-8.81,2.52-9.85-4.57c-1.19-8.1-2.51-16.17-3.64-24.27c-0.32-2.3-0.27-4.5,2.67-5.41c5.61-1.75,14.75,1.45,19,7.03
			c4.39,5.77,3.77,11.71,0.82,17.98C206.5,134.13,203.16,135.68,205.28,139.01z"/>
		<path class="st2" d="M205.28,139.01c-2.12-3.33,1.22-4.88,2.24-7.04c2.95-6.26,3.57-12.21-0.82-17.98
			c-4.25-5.58-13.4-8.77-19-7.03c-2.95,0.92-3,3.11-2.67,5.41c1.13,8.1,2.45,16.18,3.64,24.27c1.04,7.09,4.66,7.32,9.85,4.57
			c1.84-0.97,3.41-4.23,6.15-1.56c-1.56,1.18-3.02,2.55-4.7,3.5c-8.53,4.86-11.72,3.51-13.73-6.47c-1.66-8.25-2.77-16.64-3.76-25.01
			c-0.53-4.45,1.4-7.24,6.09-7.69c9.31-0.9,18.44,3.65,22.18,11.42C214.42,123.06,212.71,130.45,205.28,139.01z"/>
		<path class="st2" d="M174.53,149.13c5.23-11.91,3.1-24.17,1.51-36.39c-0.45-3.44-2.98-3-5.08-2.4c-2.77,0.78-5.44,1.99-8.15,3.02
			c2.09-5.64,6.99-6.19,11.41-5.97c4.81,0.25,4.24,5.11,4.89,8.82c1.63,9.41,2.22,18.78-0.04,28.15
			C178.47,146.8,178.38,150.05,174.53,149.13z"/>
		<path class="st2" d="M152.57,122.7c-2.2-2.35,0.56-3.46,1.13-5.12c1.55-0.64,2.66-3.25,4.8-1.19
			C156.53,118.49,154.55,120.6,152.57,122.7z"/>
		<path class="st2" d="M162.89,113.28c-0.79,2.18-2.66,2.66-4.49,3.2C158.3,112.87,159.88,111.94,162.89,113.28z"/>
		<path class="st2" d="M159.32,125.53c0.49-1.38,0.52-1.76,0.67-1.83c3.12-1.53,5.63-4.93,9.63-3.7c0.39,0.12,0.86,1.73,0.71,1.86
			C167.23,124.45,163.65,125.47,159.32,125.53z"/>
		<path class="st2" d="M248.65,163.98c0.83,1.53,1.08,3.09,0.42,4.87c-1.72-0.99-1.12-2.65-1.59-3.87
			C247.87,164.64,248.26,164.31,248.65,163.98z"/>
	</g>
</g>
<polyline class="st0" points="423,-477.12 906.38,-339.12 781.98,-130.99 298.59,-268.99 "/>
<g>
	<g>
		<path class="st8" d="M119.18,107.56c1.08-0.75,1.65,0.68,1.69,4.25c0.1,8.01,0.15,12,0.26,19.99c0.04,3.39-0.48,5.54-1.56,5.93
			c-5.25,1.89-7.81,2.89-12.8,5.01c-0.98,0.42-1.52,2.11-1.49,5.02c0.02,1.86,0.03,2.79,0.06,4.64c0.03,2.76,0.62,4.22,1.6,4.01
			c3.2-0.7,4.83-1.04,8.15-1.68c1.07-0.21,1.63,1.38,1.67,4.75c0.1,7.56,0.14,11.34,0.24,18.89c0.04,3.2-0.48,4.97-1.55,4.81
			c-3.33-0.5-4.97-0.76-8.19-1.29c-0.99-0.16-1.54,1.18-1.5,4.07c0.02,1.85,0.03,2.77,0.06,4.62c0.03,2.74,0.62,4.54,1.61,4.9
			c5.05,1.86,7.64,2.74,12.95,4.42c1.1,0.35,1.67,2.29,1.72,5.83c0.1,7.93,0.15,11.9,0.25,19.82c0.04,3.54-0.49,4.96-1.59,4.25
			c-9.25-5.92-13.71-9.17-22.17-16.21c-0.96-0.8-1.52-2.6-1.55-4.92c-0.3-26.26-0.6-52.53-0.91-78.79
			c-0.03-2.49,0.49-4.23,1.42-5.08C105.76,117.27,110.12,113.82,119.18,107.56z"/>
		<path class="st8" d="M154.87,240.16c0.07,4.99-0.5,7.46-1.7,6.93c-2.69-1.18-4.03-1.78-6.68-3.04c-1.12-0.53-1.8-2.98-1.86-7.24
			c-0.1-7.42-0.15-11.13-0.25-18.55c-0.06-4.27-0.67-6.56-1.84-6.89c-2.01-0.57-3.01-0.86-5-1.45c-1.1-0.33-1.7,1.49-1.65,5.5
			c0.09,6.98,0.14,10.47,0.23,17.44c0.05,4.01-0.5,5.7-1.65,5.08c-2.57-1.4-3.85-2.13-6.38-3.61c-1.07-0.63-1.72-3.21-1.77-7.26
			c-0.34-26.1-0.68-52.2-1.01-78.3c-0.29-16.27-2.23-48.81,13.14-56.84c15.12-7.9,15.04,43.79,15.11,51.85
			C154,175.91,154.44,208.04,154.87,240.16z M143.41,145.37c-0.14-10.28-0.63-15.34-4.44-14.26c-3.8,1.08-4.12,6.07-3.99,15.74
			c0.12,8.79,0.17,13.18,0.29,21.95c0.05,3.82,0.71,6.06,1.8,6.09c1.98,0.07,2.97,0.1,4.98,0.16c1.16-0.17,1.72-2.3,1.66-6.58
			C143.6,159.24,143.53,154.62,143.41,145.37z"/>
		<path class="st8" d="M167.68,132.13c-0.07-4.88-0.71-7.21-1.94-6.97c-3.42,0.68-5.12,1.03-8.49,1.78
			c-1.14,0.25-1.84-2.13-1.9-6.51c-0.14-10.33-0.21-15.5-0.35-25.84c-0.06-4.62,0.56-7.22,1.7-7.7
			c10.53-4.19,20.71-7.68,31.58-10.85c1.26-0.33,1.93,2.15,2.01,7.45c0.14,9.88,0.27,19.76,0.41,29.63
			c0.07,5.03-0.53,8.02-1.79,8.19c-3.55,0.49-5.31,0.75-8.81,1.3c-1.19,0.19-1.84,2.85-1.77,7.93c0.55,39.62,1.09,79.24,1.63,118.86
			c0.07,4.82-0.53,7.42-1.78,7.03c-2.81-0.88-4.21-1.34-6.99-2.3c-1.18-0.41-1.9-3.33-1.96-7.95
			C168.72,208.17,168.2,170.15,167.68,132.13z"/>
		<path class="st8" d="M202.95,72.65c1.28-0.26,1.97,2.36,2.04,7.84c0.81,58.34,1.62,116.69,2.43,175.03
			c0.07,5.19-0.53,8.08-1.83,7.83c-2.84-0.55-4.26-0.85-7.09-1.48c-1.22-0.27-1.97-3.37-2.04-8.43
			c-0.79-56.94-1.58-113.87-2.37-170.81c-0.07-5.35,0.59-8.19,1.8-8.47C198.71,73.51,200.12,73.21,202.95,72.65z"/>
		<path class="st8" d="M222.82,69.54c1.11-0.13,1.85,1.77,2.37,6.24c3.43,31.31,6.83,62.61,10.22,93.92
			c0.3,2.56,0.82,1.99,0.78-0.85c-0.43-30.62-0.86-61.24-1.28-91.86c-0.08-5.69,0.6-8.58,1.85-8.66c2.94-0.17,4.41-0.24,7.36-0.32
			c1.31-0.04,2.01,2.81,2.09,8.52c0.85,60.96,1.71,121.93,2.56,182.89c0.08,5.43-0.54,8.56-1.85,8.52c-3.87-0.12-5.8-0.21-9.67-0.47
			c-1.12-0.08-1.87-2.12-2.39-6.69c-3.4-31.49-6.8-62.97-10.22-94.45c-0.3-2.53-0.81-1.96-0.77,0.85
			c0.42,30.26,0.85,60.52,1.27,90.77c0.07,5.34-0.54,8.36-1.85,8.2c-2.93-0.36-4.39-0.56-7.31-1c-1.24-0.19-1.99-3.35-2.07-8.6
			c-0.82-59.03-1.64-118.06-2.47-177.1c-0.08-5.54,0.6-8.43,1.83-8.62C217.08,70.24,218.99,69.98,222.82,69.54z"/>
		<path class="st8" d="M252.91,132.24c-0.18-14.12-0.77-69.51,15.54-68.9c15.43,0.57,16.83,48.17,17.23,62.08
			c0.14,5.03-0.41,8.09-1.57,9.16c-2.91,2.68-4.37,4.05-7.29,6.81c-1.29,1.1-2.06-1.47-2.27-7.41c-0.47-13.58-2.96-22.45-5.42-21.74
			c-6.94,2.01-4.77,26.24-4.7,35.21c0.19,13.69,0.38,27.38,0.57,41.07c0.18,9.08,2.32,35.56,5.68,35.2
			c3.38-0.36,5.11-18.39,4.8-27.43c-1.52,0.04-2.28,0.06-3.8,0.09c-1.25,0.03-2.01-3.09-2.09-8.5c-0.13-9.1-0.19-13.66-0.32-22.76
			c-0.08-5.69,0.6-8.53,1.85-8.52c5.25,0.04,7.87,0.06,13.09,0.12c1.3,0.02,2,2.82,2.07,8.42c0.18,12.59,0.35,25.18,0.53,37.77
			c0.23,15.44,0.72,68.76-15.45,69.73c-15.94,0.95-17.25-54.43-17.47-68.92C253.57,179.89,253.24,156.07,252.91,132.24z"/>
		<path class="st8" d="M342.58,197.64c0.29,17.03,0.82,59.22-14.65,64.05c-14.23,4.44-16.55-49.34-16.71-60.43
			c-0.31-22.26-0.62-44.52-0.93-66.78c-0.14-10.85,0.7-64.72,15.06-60.39c15.73,4.74,16.25,46.46,16.42,63.64
			C342.03,157.7,342.31,177.67,342.58,197.64z M331.32,149.73c0.02-8.83-2.14-31.66-5.37-31.87c-3.57-0.23-4.71,22.58-4.54,31.31
			c0.17,12.43,0.34,24.87,0.51,37.3c0.07,8.8,2.22,31.57,5.4,31.3c3.56-0.3,4.75-23.2,4.49-31.99
			C331.65,173.77,331.48,161.75,331.32,149.73z"/>
		<path class="st8" d="M354.74,89.53c1.2,0.53,1.82,3.01,1.88,7.41c0.39,28.83,0.77,57.66,1.16,86.49c0.19,7.97,2.65,26.39,5,26.12
			c2.98-0.34,4.55-18.44,4.24-27.19c-0.36-27.11-0.72-54.22-1.08-81.33c-0.06-4.14,0.56-5.88,1.66-5.31
			c2.6,1.35,3.89,2.05,6.45,3.48c1.14,0.64,1.73,2.88,1.78,6.7c0.37,28.46,0.74,56.92,1.12,85.38c0.27,16.75,0.09,48.69-13.67,55.28
			c-13.04,6.24-15.45-39.76-15.61-49.69c-0.47-34.65-0.94-69.31-1.41-103.96c-0.06-4.66,0.58-6.73,1.73-6.26
			C350.71,87.76,352.06,88.34,354.74,89.53z"/>
		<path class="st8" d="M390.3,142.37c-0.04-3.32-0.6-5.16-1.69-5.51c-3.04-0.99-4.58-1.47-7.7-2.4c-1.06-0.32-1.7-2.55-1.75-6.09
			c-0.11-8.35-0.16-12.52-0.27-20.85c-0.05-3.72,0.55-5.22,1.61-4.57c9.58,6.11,18.35,12.34,27.28,19.36
			c1.01,0.84,1.52,2.48,1.55,4.92c0.06,5.46,0.09,8.2,0.16,13.68c0.03,2.32-0.45,3.46-1.45,3.05c-2.8-1.15-4.23-1.71-7.12-2.79
			c-0.98-0.37-1.54,0.89-1.5,3.82c0.28,23.01,0.56,46.03,0.84,69.04c0.03,2.82-0.46,4.87-1.48,5.7c-2.3,1.85-3.47,2.75-5.83,4.51
			c-1,0.75-1.61-0.67-1.65-3.85C390.96,194.38,390.63,168.37,390.3,142.37z"/>
	</g>
</g>
<g>
	<g>
		<path class="st9" d="M94.35,265.82c-1.07-1.77-0.77-2.91,0.65-3.21c3.23-0.68,4.97-0.77,8.66-0.59c1.39,0.07,2.69,0.98,3.45,2.64
			c8.67,17.33,18.94,33.86,28.52,50.69c0.75,1.29,1.28,1.5,0.8,0.31c-6.7-15.74-14.53-31.77-17.97-48.65
			c-0.3-1.66,0.51-2.25,2.12-1.77c3.07,0.91,4.64,1.44,7.83,2.57c1.67,0.6,3,1.93,3.77,3.84c7.21,18.25,16.19,35.83,24.25,53.71
			c0.61,1.34,1.18,1.65,0.87,0.47c-4.81-15.98-10.39-32.21-12.29-48.87c-0.23-1.77,0.85-2.17,2.59-1.42
			c4.59,1.98,6.91,3.01,11.48,5.02c2.02,0.88,3.15,2.59,3.17,4.77c0.51,24.5,8.03,47.99,10.53,72.24c0.16,1.71-0.43,2.14-1.53,1.41
			c-3.45-2.32-5.17-3.5-8.59-5.8c-1.09-0.73-1.94-2.05-2.63-3.97c-3.85-10.68-9.05-20.73-14.19-30.82
			c-0.69-1.34-1.27-1.61-0.85-0.41c3.91,11.71,6.06,17.61,7.65,26.59c0.26,1.54-0.19,1.96-1.26,1.31c-3.35-2.04-5-3-8.27-4.67
			c-1.04-0.53-1.95-1.61-2.67-3.21C128.05,312.22,109.44,289.98,94.35,265.82z"/>
		<path class="st9" d="M180.73,289.48c1.8,0.66,2.77,2.07,3.01,4.35c3.14,25.43,8.09,50.56,11.07,76.01
			c0.21,2.14-0.31,3.08-1.52,2.48c-2.67-1.33-4.02-2.07-6.71-3.62c-1.16-0.67-1.96-2.26-2.25-4.36
			c-4.34-25.8-11.51-50.95-16.08-76.7c-0.33-2.24,0.58-2.88,2.36-2.14C174.74,287.21,176.78,288.03,180.73,289.48z"/>
		<path class="st9" d="M206.17,319.16c-0.18-2.38-0.96-3.61-2.39-3.8c-4.01-0.54-6.15-1.07-10.59-2.43
			c-1.51-0.46-2.57-2.08-2.85-4.32c-0.65-5.29-0.95-7.91-1.42-13.04c-0.21-2.29,0.65-3.12,2.25-2.67
			c11.86,3.77,24.09,1.71,36.23,1.45c1.34-0.03,2.05,1.18,2.13,3.61c0.19,5.45,0.28,8.18,0.47,13.63c0.08,2.31-0.52,3.66-1.82,3.67
			c-3.63,0.04-5.44,0.08-9.06,0.17c-1.23,0.03-1.87,1.26-1.74,3.66c1.03,18.79,2.05,37.58,3.08,56.38c0.12,2.29-0.39,3.58-1.55,3.52
			c-2.61-0.15-3.91-0.18-6.52-0.46c-1.11-0.12-1.84-1.52-1.98-3.76C209.1,356.22,207.62,337.69,206.17,319.16z"/>
		<path class="st9" d="M242.92,294.3c1.27,0.02,2.02,1.37,2.05,3.69c0.12,10.13,0.23,20.26,0.35,30.4c0.03,2.31,0.74,3.65,1.94,3.66
			c2.43,0.01,3.64,0.02,6.07,0.03c1.26,0.01,1.9-1.31,1.91-3.61c0.04-10.05,0.08-20.1,0.12-30.16c0.01-2.29,0.75-3.59,2.02-3.52
			c3,0.15,4.5,0.24,7.49,0.45c1.34,0.09,1.98,1.33,1.93,3.71c-0.54,25.33-1.08,50.66-1.62,76c-0.05,2.26-0.66,3.61-1.83,3.69
			c-2.62,0.19-3.93,0.27-6.55,0.41c-1.11,0.06-1.75-1.24-1.74-3.53c0.03-7.62,0.04-11.44,0.07-19.06c0.01-2.41-0.6-3.61-1.82-3.59
			c-2.35,0.03-3.52,0.05-5.87,0.07c-1.16,0.01-1.82,1.23-1.79,3.66c0.09,7.69,0.13,11.53,0.22,19.21c0.03,2.31-0.54,3.66-1.71,3.68
			c-2.62,0.04-3.93,0.05-6.55,0.05c-1.11,0-1.79-1.35-1.86-3.66c-0.74-25.99-1.48-51.97-2.22-77.96c-0.07-2.44,0.56-3.66,1.9-3.66
			C238.43,294.24,239.92,294.25,242.92,294.3z"/>
		<path class="st9" d="M306,298.57c1.29-0.18,2.1,0.36,2.51,1.9c2.46,11.17,4.23,21.82,5.56,33.18c0.11,0.92,0.72,0.48,0.92-0.66
			c2.1-11.8,4.18-23.63,5.61-35.53c0.23-2.01,1.27-3.32,2.93-3.99c3.92-1.58,5.94-2.48,10.03-4.41c1.83-0.86,2.62-0.39,2.29,1.59
			c-4.33,24.4-12.06,48.06-16.13,72.52c-0.28,1.83-0.98,3.11-2.14,3.66c-3.4,1.64-5.1,2.41-8.51,3.77
			c-0.99,0.39-1.57-0.03-1.83-1.47c-1.61-11.15-2.87-22.35-4.37-33.51c-0.16-0.94-0.72-0.62-0.84,0.48
			c-1.24,11.62-2.44,23.25-3.35,34.91c-0.15,1.98-0.81,3.26-1.97,3.53c-2.6,0.6-3.9,0.78-6.51,1.16c-1.11,0.16-1.67-0.97-1.53-3.08
			c1.56-23.7,3.12-47.4,4.68-71.1c0.15-2.22,0.95-3.24,2.22-3.06C299.5,299.02,301.52,299.2,306,298.57z"/>
		<path class="st9" d="M358.76,276.42c1.88-0.94,2.61-0.53,2.09,1.43c-7.72,25.92-18.36,50.96-25.35,77.09
			c-0.45,1.78-1.21,3.02-2.36,3.66c-2.52,1.41-3.79,2.11-6.32,3.48c-1.09,0.59-1.58-0.04-1.24-1.85
			c5.08-25.07,13.7-49.32,19.48-74.24c0.4-1.97,1.58-3.4,3.36-4.31C352.55,279.58,354.63,278.5,358.76,276.42z"/>
		<path class="st9" d="M369.01,338.84c-0.77,1.55-1.6,2.34-2.71,2.77c-2.5,0.97-3.76,1.5-6.27,2.65c-1.07,0.49-1.46,0.14-0.79-1.48
			c1.17-2.82,1.93-4.54,3.68-8.33c1.01-2.18,0.99-3.2-0.2-2.76c-2.05,0.74-3.08,1.15-5.17,2.03c-1.15,0.48-2.34,2.01-3.26,4.25
			c-1.59,3.9-2.29,5.7-3.37,8.75c-0.62,1.75-1.41,2.78-2.54,3.39c-2.54,1.37-3.82,2.08-6.38,3.51c-1.08,0.61-1.48,0-0.89-2.06
			c5.57-17.99,12.8-35.47,19.59-53.03c5.84-15.78,14.5-32.29,31.66-37.06c20.28-5.64,8.29,19.38,4.32,26.25
			C387.38,304.71,377.85,321.6,369.01,338.84z M385.12,288.89c3.21-6.55,4.17-9.58-0.94-7.99c-5.11,1.59-7.01,4.96-9.89,11.5
			c-2.62,5.93-4.02,9.06-6.77,15.2c-1.2,2.68-1.12,3.9,0.19,3.4c2.36-0.9,3.53-1.31,5.81-2c1.4-0.54,2.74-2.12,4.14-4.96
			C380.68,297.91,382.23,294.79,385.12,288.89z"/>
	</g>
</g>
<use xlink:href="#Restaurant_00000087370698334985750340000007035489789352156825_"  width="781.93" height="557.53" id="XMLID_00000176740186584678275980000013111812106713439136_" x="-612.78" y="12.79" transform="matrix(1.0402 2.596707e-04 2.868879e-04 -1.1265 649.288 739.5703)" style="overflow:visible;"/>
<g id="Restaurant">
	<rect x="1232.99" y="530.79" class="st0" width="181.39" height="170.34"/>
	<path class="st10" d="M822.89,54.71L715.26,270.62c0,0-15.77,21.45-15.58-7.03l59.84-120.05l-5.72-19.81l36.39-69.82
		C790.18,53.91,812.5,30.24,822.89,54.71z"/>
	<path class="st11" d="M677.34,56.1c0,0,7.13,69.29,43.61,72.45l79.2,139.23c0,0,19.29,20.86,13.34-8.55l-79.57-139.88
		c0,0,21.57-26.29-38.82-74.65l24.73,50.44l-32.35-45.73l22,53.72L677.34,56.1z"/>
	<g>
		<g>
			<path class="st12" d="M680.2,115.23c1.21-0.77,1.83,0.16,1.83,2.78c0,5.86,0,8.79,0,14.65c0,2.49-0.62,4.11-1.83,4.51
				c-5.88,1.91-8.71,2.96-14.06,5.27c-1.05,0.45-1.65,1.66-1.65,3.54c0,1.2,0,1.8,0,3c0,1.78,0.6,2.69,1.65,2.47
				c3.43-0.72,5.2-1.05,8.85-1.69c1.18-0.2,1.78,0.91,1.78,3.33c0,5.42,0,8.14,0,13.56c0,2.3-0.6,3.53-1.78,3.33
				c-3.65-0.64-5.43-0.97-8.85-1.69c-1.05-0.22-1.65,0.59-1.65,2.47c0,1.2,0,1.8,0,3c0,1.78,0.6,3.09,1.65,3.54
				c5.35,2.31,8.18,3.37,14.06,5.27c1.21,0.39,1.83,1.89,1.83,4.51c0,5.86,0,8.79,0,14.65c0,2.62-0.62,3.55-1.83,2.78
				c-8.38-5.2-16.76-12.05-23.49-19.26c-0.96-1.01-1.51-2.35-1.51-3.64c0-14.49,0-28.98,0-43.47c0-1.36,0.54-2.64,1.51-3.64
				C663.43,127.28,671.81,120.43,680.2,115.23z"/>
			<path class="st12" d="M695.12,186.76c1.3,0.31,1.96,2,1.96,5.07c0,6.88,0,10.32,0,17.2c0,2.92-0.66,4.32-1.96,3.71
				c-2.91-1.37-4.35-2.1-7.18-3.65c-1.2-0.65-1.89-2.56-1.89-5.18c0-6.17,0-9.25,0-15.41c0-2.75,0.69-3.93,1.89-3.6
				C690.77,185.69,692.21,186.06,695.12,186.76z"/>
			<path class="st12" d="M735.98,183.1c0.06,10.9-1.42,46.12-17.68,41.31c-15.26-4.51-17.12-30.23-17.07-44.69
				c0-13.23,0-26.46,0-39.69c-0.05-14.46,1.81-40.18,17.07-44.69c16.26-4.81,17.73,30.41,17.68,41.31
				C735.98,152.13,735.98,167.61,735.98,183.1z M723.81,146.96c0-13.81-0.38-22.24-5.51-21.46c-5.14,0.78-5.45,8.92-5.45,22.07
				c0,9.84,0,14.76,0,24.6c0,13.15,0.32,21.29,5.45,22.07c5.14,0.78,5.51-7.65,5.51-21.46
				C723.81,162.46,723.81,157.29,723.81,146.96z"/>
			<path class="st12" d="M751.75,193.67c1.44,0.03,2.16,1.93,2.16,5.73c0,8.51,0,12.77,0,21.28c0,3.61-0.72,5.69-2.16,5.64
				c-3.22-0.12-4.84-0.22-8.05-0.51c-1.36-0.12-2.15-2.28-2.15-5.84c0-8.41,0-12.62,0-21.03c0-3.76,0.79-5.59,2.15-5.53
				C746.92,193.55,748.53,193.6,751.75,193.67z"/>
			<path class="st12" d="M756.58,99.6c-0.29-3.99,0.43-6.28,1.94-6.27c3.43,0.03,5.14,0.09,8.56,0.32c1.29,0.09,2.22,1.86,2.37,5.08
				c1.36,26.2,2.72,52.39,4.08,78.59c0.14,1.87,0.71,1.85,0.86-0.03c1.58-25.84,3.17-51.68,4.77-77.53
				c0.21-3.12,1.07-4.67,2.34-4.46c2.44,0.4,3.65,0.63,6.07,1.14c1.26,0.26,2.1,2.08,2.31,5.18c1.54,24.89,3.09,49.78,4.67,74.66
				c0.14,1.76,0.69,1.71,0.83-0.06c1.29-24.1,2.6-48.21,3.93-72.31c0.14-2.9,1.03-4.18,2.26-3.79c3.25,1.03,4.86,1.6,8.04,2.83
				c1.4,0.54,2.06,2.73,1.8,6.01c-2.86,35.24-5.6,70.48-8.27,105.74c-0.2,2.94-1.02,4.74-2.25,5.12c-3.86,1.21-5.81,1.74-9.75,2.67
				c-1.26,0.3-2.03-1.16-2.31-4.17c-1.3-14.74-2.59-29.47-3.87-44.21c-0.14-1.82-0.71-1.8-0.85,0.04
				c-1.3,15.22-2.6,30.45-3.89,45.67c-0.28,3.19-1.07,4.98-2.35,5.16c-4.01,0.56-6.03,0.77-10.08,1.06
				c-1.29,0.09-2.15-1.57-2.37-4.78C762.47,180.71,759.52,140.16,756.58,99.6z"/>
			<path class="st12" d="M820.82,186.31c1.28-0.32,1.92,0.96,1.92,3.88c0,6.53,0,9.79,0,16.32c0,2.77-0.63,4.71-1.92,5.34
				c-2.87,1.43-4.33,2.1-7.29,3.35c-1.25,0.53-1.98-0.94-1.98-3.99c0-7.19,0-10.78,0-17.97c0-3.21,0.73-4.96,1.98-5.23
				C816.49,187.37,817.94,187.03,820.82,186.31z"/>
			<path class="st12" d="M838.05,118.19c1,0.71,1.64,2,2.04,4.12c2.36,12.76,4.77,25.49,7.66,38.14c0.22,0.87,0.65,0.66,0.65-0.3
				c0-10.3,0-20.59,0-30.89c0-1.91,0.6-2.34,1.62-1.41c2.4,2.2,3.57,3.35,5.84,5.72c1.01,1.06,1.51,2.31,1.51,3.72
				c0,15.04,0,30.08,0,45.13c0,1.34-0.49,2.66-1.51,3.72c-2.98,3.12-4.53,4.61-7.73,7.42c-0.93,0.81-1.54,0.64-1.92-0.67
				c-3.03-11.15-5.38-22.45-7.75-33.75c-0.23-1.07-0.7-0.85-0.7,0.35c0,12.89,0,25.77,0,38.66c0,2.27-0.58,4.01-1.77,4.82
				c-2.66,1.81-4.02,2.67-6.79,4.31c-1.17,0.69-1.86-0.44-1.86-3.08c0-29.57,0-59.13,0-88.7c0-2.77,0.69-3.77,1.86-3.08
				C832.82,114.59,834.6,115.74,838.05,118.19z"/>
		</g>
	</g>
</g>
</svg>
