<?xml version="1.0" encoding="utf-8"?>
<!-- Generator: Adobe Illustrator 26.0.1, SVG Export Plug-In . SVG Version: 6.00 Build 0)  -->
<svg version="1.1" id="Layer_1" xmlns="http://www.w3.org/2000/svg" xmlns:xlink="http://www.w3.org/1999/xlink" x="0px" y="0px"
	 viewBox="0 0 217 242" style="enable-background:new 0 0 217 242;" xml:space="preserve">
<style type="text/css">
	.st0{fill:#662D91;stroke:#FFFFFF;stroke-width:1.9039;stroke-miterlimit:10;}
	.st1{fill:#662D91;stroke:#FFFFFF;stroke-width:1.0313;stroke-miterlimit:10;}
	.st2{fill:#FFFFFF;stroke:#000000;stroke-width:4.064;stroke-miterlimit:10;}
</style>
<path class="st0" d="M175.82,18.13L68.19,234.05c0,0-15.77,21.45-15.58-7.03l59.84-120.05l-5.72-19.81l36.39-69.82
	C143.11,17.33,165.43-6.33,175.82,18.13z"/>
<path class="st1" d="M30.27,19.52c0,0,7.13,69.29,43.61,72.45l79.2,139.23c0,0,19.29,20.86,13.34-8.55L86.85,82.77
	c0,0,21.57-26.29-38.82-74.65l24.73,50.44L40.42,12.84l22,53.72L30.27,19.52z"/>
<g>
	<g>
		<path class="st2" d="M33.13,78.65c1.21-0.77,1.83,0.16,1.83,2.78c0,5.86,0,8.79,0,14.65c0,2.49-0.62,4.11-1.83,4.51
			c-5.88,1.91-8.71,2.96-14.06,5.27c-1.05,0.45-1.65,1.66-1.65,3.54c0,1.2,0,1.8,0,3c0,1.78,0.6,2.69,1.65,2.47
			c3.43-0.72,5.2-1.05,8.85-1.69c1.18-0.2,1.78,0.91,1.78,3.33c0,5.42,0,8.14,0,13.56c0,2.3-0.6,3.53-1.78,3.33
			c-3.65-0.64-5.43-0.97-8.85-1.69c-1.05-0.22-1.65,0.59-1.65,2.47c0,1.2,0,1.8,0,3c0,1.78,0.6,3.09,1.65,3.54
			c5.35,2.31,8.18,3.37,14.06,5.27c1.21,0.39,1.83,1.89,1.83,4.51c0,5.86,0,8.79,0,14.65c0,2.62-0.62,3.55-1.83,2.78
			c-8.38-5.2-16.76-12.05-23.49-19.26c-0.96-1.01-1.51-2.35-1.51-3.64c0-14.49,0-28.98,0-43.47c0-1.36,0.54-2.64,1.51-3.64
			C16.37,90.7,24.75,83.85,33.13,78.65z"/>
		<path class="st2" d="M48.05,150.18c1.3,0.31,1.96,2,1.96,5.07c0,6.88,0,10.32,0,17.2c0,2.92-0.66,4.32-1.96,3.71
			c-2.91-1.37-4.35-2.1-7.18-3.65c-1.2-0.65-1.89-2.56-1.89-5.18c0-6.17,0-9.25,0-15.41c0-2.75,0.69-3.93,1.89-3.6
			C43.7,149.11,45.14,149.48,48.05,150.18z"/>
		<path class="st2" d="M88.91,146.52c0.06,10.9-1.42,46.12-17.68,41.31c-15.26-4.51-17.12-30.23-17.07-44.69
			c0-13.23,0-26.46,0-39.69c-0.05-14.46,1.81-40.18,17.07-44.69c16.26-4.81,17.73,30.41,17.68,41.31
			C88.91,115.55,88.91,131.04,88.91,146.52z M76.74,110.39c0-13.81-0.38-22.24-5.51-21.46s-5.45,8.92-5.45,22.07
			c0,9.84,0,14.76,0,24.6c0,13.15,0.32,21.29,5.45,22.07s5.51-7.65,5.51-21.46C76.74,125.88,76.74,120.71,76.74,110.39z"/>
		<path class="st2" d="M104.68,157.09c1.44,0.03,2.16,1.93,2.16,5.73c0,8.51,0,12.77,0,21.28c0,3.61-0.72,5.69-2.16,5.64
			c-3.22-0.12-4.84-0.22-8.05-0.51c-1.36-0.12-2.15-2.28-2.15-5.84c0-8.41,0-12.62,0-21.03c0-3.76,0.79-5.59,2.15-5.53
			C99.85,156.98,101.46,157.03,104.68,157.09z"/>
		<path class="st2" d="M109.51,63.03c-0.29-3.99,0.43-6.28,1.94-6.27c3.43,0.03,5.14,0.09,8.56,0.32c1.29,0.09,2.22,1.86,2.37,5.08
			c1.36,26.2,2.72,52.39,4.08,78.59c0.14,1.87,0.71,1.85,0.86-0.03c1.58-25.84,3.17-51.68,4.77-77.53c0.21-3.12,1.07-4.67,2.34-4.46
			c2.44,0.4,3.65,0.63,6.07,1.14c1.26,0.26,2.1,2.08,2.31,5.18c1.54,24.89,3.09,49.78,4.67,74.66c0.14,1.76,0.69,1.71,0.83-0.06
			c1.29-24.1,2.6-48.21,3.93-72.31c0.14-2.9,1.03-4.18,2.26-3.79c3.25,1.03,4.86,1.6,8.04,2.83c1.4,0.54,2.06,2.73,1.8,6.01
			c-2.86,35.24-5.6,70.48-8.27,105.74c-0.2,2.94-1.02,4.74-2.25,5.12c-3.86,1.21-5.81,1.74-9.75,2.67c-1.26,0.3-2.03-1.16-2.31-4.17
			c-1.3-14.74-2.59-29.47-3.87-44.21c-0.14-1.82-0.71-1.8-0.85,0.04c-1.3,15.22-2.6,30.45-3.89,45.67
			c-0.28,3.19-1.07,4.98-2.35,5.16c-4.01,0.56-6.03,0.77-10.08,1.06c-1.29,0.09-2.15-1.57-2.37-4.78
			C115.4,144.14,112.46,103.58,109.51,63.03z"/>
		<path class="st2" d="M173.75,149.73c1.28-0.32,1.92,0.96,1.92,3.88c0,6.53,0,9.79,0,16.32c0,2.77-0.63,4.71-1.92,5.34
			c-2.87,1.43-4.33,2.1-7.29,3.35c-1.25,0.53-1.98-0.94-1.98-3.99c0-7.19,0-10.78,0-17.97c0-3.21,0.73-4.96,1.98-5.23
			C169.42,150.8,170.88,150.45,173.75,149.73z"/>
		<path class="st2" d="M190.98,81.62c1,0.71,1.64,2,2.04,4.12c2.36,12.76,4.77,25.49,7.66,38.14c0.22,0.87,0.65,0.66,0.65-0.3
			c0-10.3,0-20.59,0-30.89c0-1.91,0.6-2.34,1.62-1.41c2.4,2.2,3.57,3.35,5.84,5.72c1.01,1.06,1.51,2.31,1.51,3.72
			c0,15.04,0,30.08,0,45.13c0,1.34-0.49,2.66-1.51,3.72c-2.98,3.12-4.53,4.61-7.73,7.42c-0.93,0.81-1.54,0.64-1.92-0.67
			c-3.03-11.15-5.38-22.45-7.75-33.75c-0.23-1.07-0.7-0.85-0.7,0.35c0,12.89,0,25.77,0,38.66c0,2.27-0.58,4.01-1.77,4.82
			c-2.66,1.81-4.02,2.67-6.79,4.31c-1.17,0.69-1.86-0.44-1.86-3.08c0-29.57,0-59.13,0-88.7c0-2.77,0.69-3.77,1.86-3.08
			C185.76,78.02,187.53,79.17,190.98,81.62z"/>
	</g>
</g>
</svg>
